<?xml version="1.0" encoding="UTF-8" standalone="no"?>
<!-- Created with Inkscape (http://www.inkscape.org/) -->

<svg
   width="210mm"
   height="297mm"
   viewBox="0 0 210 297"
   version="1.1"
   id="svg5"
   xml:space="preserve"
   inkscape:version="1.2.2 (732a01da63, 2022-12-09)"
   sodipodi:docname="drawing-2.svg"
   xmlns:inkscape="http://www.inkscape.org/namespaces/inkscape"
   xmlns:sodipodi="http://sodipodi.sourceforge.net/DTD/sodipodi-0.dtd"
   xmlns:xlink="http://www.w3.org/1999/xlink"
   xmlns="http://www.w3.org/2000/svg"
   xmlns:svg="http://www.w3.org/2000/svg"><sodipodi:namedview
     id="namedview7"
     pagecolor="#ffffff"
     bordercolor="#000000"
     borderopacity="0.25"
     inkscape:showpageshadow="2"
     inkscape:pageopacity="0.0"
     inkscape:pagecheckerboard="0"
     inkscape:deskcolor="#d1d1d1"
     inkscape:document-units="mm"
     showgrid="false"
     showguides="true"
     inkscape:zoom="1.5625561"
     inkscape:cx="267.83038"
     inkscape:cy="216.31223"
     inkscape:window-width="1920"
     inkscape:window-height="1057"
     inkscape:window-x="-8"
     inkscape:window-y="-8"
     inkscape:window-maximized="1"
     inkscape:current-layer="layer1" /><defs
     id="defs2"><linearGradient
       inkscape:collect="always"
       id="linearGradient2572"><stop
         style="stop-color:#191a80;stop-opacity:1;"
         offset="0"
         id="stop2568" /><stop
         style="stop-color:#1aff7b;stop-opacity:1;"
         offset="1"
         id="stop2570" /></linearGradient><linearGradient
       inkscape:collect="always"
       xlink:href="#linearGradient2572"
       id="linearGradient2574"
       x1="98.302788"
       y1="-299.66309"
       x2="572.92999"
       y2="7.7439361"
       gradientUnits="userSpaceOnUse"
       gradientTransform="matrix(0.19904532,0,0,0.09532465,69.322218,56.743639)" /><linearGradient
       inkscape:collect="always"
       xlink:href="#linearGradient2572"
       id="linearGradient20198"
       gradientUnits="userSpaceOnUse"
       gradientTransform="matrix(0.19904532,0,0,0.09532465,-5.5105621,56.743639)"
       x1="98.302788"
       y1="-299.66309"
       x2="572.92999"
       y2="7.7439361" /></defs><g
     inkscape:label="Lager 1"
     inkscape:groupmode="layer"
     id="layer1"><rect
       style="fill:url(#linearGradient2574);fill-opacity:1;stroke-width:0.0413237;stroke-linecap:round;stroke-linejoin:round;stroke-miterlimit:1.4;stroke-dashoffset:1.13386;paint-order:markers fill stroke"
       id="rect2506"
       width="71.108078"
       height="21.168709"
       x="98.706985"
       y="32.249264"
       ry="1.5674938" /><text
       xml:space="preserve"
       style="font-weight:bold;font-size:5.60158px;font-family:Roboto;-inkscape-font-specification:'Roboto Bold';fill:#ffffff;stroke-width:0.264642;stroke-linecap:round;stroke-linejoin:round;stroke-miterlimit:1.4;stroke-dashoffset:1.13386;paint-order:markers fill stroke"
       x="116.72583"
       y="42.778915"
       id="text2694"><tspan
         sodipodi:role="line"
         id="tspan2692"
         style="fill:#ffffff;stroke-width:0.264642"
         x="116.72583"
         y="42.778915">Willow Automation</tspan></text><text
       xml:space="preserve"
       style="font-weight:bold;font-size:2.49222px;font-family:Roboto;-inkscape-font-specification:'Roboto Bold';fill:#ffffff;stroke-width:0.117743;stroke-linecap:round;stroke-linejoin:round;stroke-miterlimit:1.4;stroke-dashoffset:1.13386;paint-order:markers fill stroke"
       x="116.81305"
       y="46.98645"
       id="text2750"><tspan
         sodipodi:role="line"
         id="tspan2748"
         style="stroke-width:0.117743"
         x="116.81305"
         y="46.98645">Automation Software Solutions</tspan></text><path
       style="fill:#00f688;stroke-width:0.0261583;fill-opacity:1"
       d="m 105,42.916348 v -4.3292 c 3.02565,0 6.0513,0 9.07694,0 v 4.3292 4.3292 H 109.53847 105 Z m 4.54632,3.38227 c 0.0173,-0.0173 0.0314,-0.0806 0.0314,-0.14068 0,-0.3759 0.40662,-0.78283 0.69319,-0.69372 0.18822,0.0585 0.54491,0.0915 0.65396,0.0604 0.21189,-0.0604 -0.0669,-0.22757 -0.37499,-0.22487 -0.22479,0.002 -0.20802,-0.0126 0.12654,-0.10971 0.22479,-0.0653 0.29205,-0.0726 0.70622,-0.0768 0.54942,-0.006 0.93511,-0.10893 0.98641,-0.26422 0.0727,-0.22018 -0.82396,-0.11581 -1.15861,0.13485 -0.0552,0.0414 -0.14506,0.0694 -0.28497,0.0888 -0.25526,0.0355 -0.47799,0.0927 -0.67844,0.17412 -0.1803,0.0733 -0.23739,0.0812 -0.14542,0.0201 0.38928,-0.25838 0.84633,-0.97719 0.66546,-1.04659 -0.42023,-0.16126 -1.04462,0.4612 -1.0452,1.04196 -3e-4,0.2637 -0.004,0.28358 -0.0678,0.35314 -0.0371,0.0405 -0.093,0.10767 -0.12425,0.14917 -0.0733,0.0974 -0.0799,-0.14667 -0.0159,-0.58219 0.0734,-0.49868 0.21325,-0.65006 0.86468,-0.93574 l 0.38925,-0.1707 0.61472,-0.007 c 0.67764,-0.007 0.88217,-0.037 1.16529,-0.16904 0.29492,-0.13759 0.54924,-0.43692 0.44148,-0.51962 -0.36561,-0.28055 -0.99381,-0.18123 -1.65908,0.26231 -0.18255,0.1217 -0.19057,0.12463 -0.11528,0.0421 0.0445,-0.0488 0.10697,-0.13235 0.13882,-0.18573 0.0477,-0.0799 0.10984,-0.12234 0.35071,-0.23964 0.82572,-0.40209 1.19293,-0.87069 1.16386,-1.48525 l -0.008,-0.16609 -0.11771,0.008 c -0.41076,0.0278 -0.9089,0.57871 -1.12386,1.24284 -0.0503,0.15541 -0.051,0.10518 -0.002,-0.16524 0.0361,-0.20074 0.0756,-0.3097 0.20511,-0.56684 0.3166,-0.62846 0.40623,-1.19845 0.24324,-1.54697 -0.19194,-0.41039 -0.58626,0.25146 -0.58588,0.98336 l 2e-4,0.29518 -0.0479,-0.13823 c -0.0862,-0.24885 -0.30611,-0.37408 -0.28805,-0.16405 0.025,0.29093 0.39745,0.90044 0.37941,0.62092 -0.003,-0.0539 0.009,-0.0118 0.0274,0.0937 0.0275,0.15595 0.0276,0.23072 6.3e-4,0.3999 -0.12518,0.78184 -0.45093,1.16275 -1.2504,1.46214 -0.31205,0.11687 -0.47562,0.19333 -0.54612,0.25532 -0.0631,0.0554 -0.0752,0.033 -0.0415,-0.0768 0.0254,-0.0827 0.0448,-0.0981 0.17572,-0.13922 0.48175,-0.15128 0.92876,-0.47472 1.09555,-0.79268 0.18968,-0.36162 0.31415,-1.00308 0.22524,-1.16082 -0.0177,-0.0314 -0.28215,0.0454 -0.40546,0.11765 -0.3496,0.20491 -0.57013,0.52535 -0.82203,1.19443 -0.14819,0.3936 -0.14501,0.35136 0.0114,-0.15193 0.0702,-0.22576 0.15417,-0.5223 0.18668,-0.65897 0.0543,-0.22833 0.0643,-0.24883 0.12373,-0.25245 0.24686,-0.0151 0.70536,-0.37056 0.76053,-0.58965 0.12842,-0.51 -0.46294,-0.18809 -0.74373,0.40485 -0.0355,0.075 -0.059,0.11686 -0.0521,0.093 0.007,-0.0239 0.0269,-0.14163 0.0445,-0.26159 0.0391,-0.26576 0.0303,-0.25518 0.44591,-0.5345 0.59677,-0.40104 0.87383,-0.77256 0.90523,-1.21386 0.0257,-0.36179 -0.0774,-0.4338 -0.39614,-0.27664 -0.39795,0.19622 -0.66731,0.62898 -0.84786,1.36221 -0.0245,0.0996 -0.026,0.0952 -0.031,-0.0916 -0.003,-0.1079 -0.0188,-0.26015 -0.0354,-0.33833 -0.0302,-0.14215 -0.0302,-0.14215 0.17395,-0.35314 0.55885,-0.57761 0.6639,-1.33394 0.14901,-1.07281 -0.23726,0.12033 -0.36289,0.45045 -0.36779,0.96645 -0.003,0.26159 -0.003,0.26159 -0.0462,0.13919 -0.0241,-0.0673 -0.0526,-0.13109 -0.0634,-0.1417 -0.0108,-0.0106 -0.0196,-0.0617 -0.0196,-0.11354 0,-0.39636 -0.30465,-0.94874 -0.59512,-1.07905 -0.52978,-0.23767 -0.22559,0.65019 0.35841,1.04612 0.0784,0.0532 0.15251,0.10357 0.16464,0.112 0.0398,0.0277 0.14329,0.37376 0.15965,0.53399 l 0.016,0.15695 -0.0481,-0.13109 c -0.17749,-0.48386 -0.4603,-0.78521 -0.81346,-0.8668 -0.24445,-0.0565 -0.27222,0.0584 -0.10385,0.42974 0.13352,0.29449 0.70473,0.76434 0.92923,0.76434 0.10373,0 -0.0252,0.73255 -0.25791,1.46487 l -0.0873,0.27466 0.0109,-0.30082 c 0.0397,-1.09637 -0.35388,-1.99232 -1.03166,-2.34836 -0.2248,-0.11808 -0.23296,-0.11533 -0.27289,0.0922 -0.16135,0.83848 0.26839,1.87794 1.07525,2.60082 l 0.15544,0.13927 -0.1803,0.51008 c -0.0992,0.28055 -0.20681,0.6072 -0.23921,0.7259 -0.0706,0.25847 -0.0687,0.25798 -0.17192,0.0453 -0.0451,-0.0929 -0.0724,-0.16301 -0.0607,-0.15579 0.12141,0.075 0.16717,-1.08909 0.0572,-1.45396 -0.25074,-0.83157 -0.64373,-0.73512 -0.64543,0.15841 -6.4e-4,0.41732 0.0276,0.49801 0.32148,0.91188 0.29994,0.42248 0.30404,0.43116 0.0697,0.14753 -0.0832,-0.10071 -0.23642,-0.27139 -0.34045,-0.3793 -0.67002,-0.69495 -0.82125,-1.26994 -0.51941,-1.97495 0.36884,-0.86151 0.40705,-1.5637 0.10398,-1.91072 -0.11123,-0.12736 -0.14088,-0.11585 -0.29342,0.11386 -0.24572,0.37003 -0.29176,1.0619 -0.11434,1.71839 0.0737,0.27271 0.0855,0.36023 0.0898,0.66703 0.003,0.19423 0.013,0.38845 0.0227,0.43162 0.0216,0.0953 -0.0269,-0.003 -0.18016,-0.36622 -0.32294,-0.76462 -1.13602,-1.52558 -1.21739,-1.13937 -0.12556,0.59591 0.60418,1.61614 1.35957,1.90078 0.16949,0.0639 0.23065,0.10088 0.27039,0.16364 l 0.0514,0.0811 -0.11596,-0.0513 c -0.4646,-0.20552 -1.15753,-0.18249 -1.47166,0.0489 -0.69056,0.50866 0.55366,0.66619 1.61166,0.20406 0.094,-0.041 0.094,-0.041 0.26158,0.14583 0.28168,0.3141 0.28703,0.32268 0.16107,0.25841 -0.47435,-0.24199 -1.19434,-0.1715 -1.36574,0.13371 -0.13259,0.23612 0.76188,0.39908 1.33303,0.24287 0.36493,-0.0998 0.33432,-0.10837 0.45016,0.12582 0.13004,0.26291 0.23379,1.19945 0.14294,1.2903 -0.004,0.004 -0.0636,-0.16059 -0.1331,-0.36499 -0.31782,-0.93405 -0.80747,-1.27091 -0.73728,-0.50723 0.0466,0.50662 0.37299,0.9482 0.78652,1.06398 0.0868,0.0243 0.13169,0.0544 0.15852,0.10626 0.0527,0.10189 0.17599,0.13842 0.24255,0.0718 z m 1.94702,-4.33705 c 0,-0.0503 0.005,-0.0709 0.012,-0.0458 0.007,0.0252 0.007,0.0664 0,0.0916 -0.007,0.0252 -0.012,0.005 -0.012,-0.0458 z m -0.95926,4.18327 c 0.44662,-0.11699 0.68038,-0.28655 0.53638,-0.38908 -0.3342,-0.23798 -1.03626,-0.14382 -1.36285,0.18277 -0.13148,0.13148 -0.13021,0.14335 0.0205,0.19176 0.26037,0.0836 0.52402,0.0884 0.80596,0.0145 z m -1.9275,-0.19739 c 0.11233,-0.0225 0.10434,-0.0435 -0.0687,-0.18046 -0.31811,-0.25186 -0.69692,-0.36388 -0.89106,-0.26349 -0.29138,0.15068 0.52888,0.53011 0.95972,0.44395 z m 3.19132,-0.41854 c 0.18949,-0.0379 0.0301,-0.23947 -0.25468,-0.32197 -0.42585,-0.12339 -0.66385,-0.0962 -0.51348,0.0586 0.19293,0.19866 0.52407,0.31219 0.76816,0.26337 z m -3.42347,-0.0762 c 0,-0.0373 -0.12087,-0.24708 -0.20289,-0.35209 -0.33976,-0.43497 -0.88887,-0.67017 -1.22928,-0.52653 -0.29033,0.1225 0.20024,0.6704 0.71771,0.80158 0.21761,0.0552 0.71446,0.10875 0.71446,0.077 z m 0.83707,-0.29879 c 0,-0.18989 -0.23183,-0.52852 -0.3814,-0.55711 -0.16079,-0.0307 -0.067,0.21266 0.17263,0.44784 0.17545,0.17222 0.20877,0.18965 0.20877,0.10927 z m 1.77876,-0.21778 c 0.31619,-0.15508 0.54864,-0.43054 0.37275,-0.44174 -0.36314,-0.0231 -0.81744,0.298 -0.81744,0.57778 0,0.037 0.24423,-0.0377 0.44469,-0.13604 z m 1.50287,-0.25825 c 0.25987,-0.11841 -0.39487,-0.47166 -1.0207,-0.55071 -0.27729,-0.035 -0.30204,-0.0266 -0.22192,0.0752 0.2492,0.31681 0.97845,0.59585 1.24262,0.47549 z m -5.45857,-0.30747 c 0.14333,-0.073 0.39699,-0.29987 0.36787,-0.329 -0.10818,-0.10817 -0.7797,0.2236 -0.78051,0.38562 -3e-4,0.0532 0.26982,0.0161 0.41264,-0.0566 z m 5.64056,-0.11728 c 0.12269,-0.0513 0.13405,-0.0856 0.0437,-0.13234 -0.14084,-0.0728 -0.51648,-0.0446 -0.64366,0.0484 -0.11742,0.0858 0.41653,0.16054 0.59992,0.0839 z m -3.08419,-0.46119 c 0.0649,-0.3343 -0.007,-0.71157 -0.12728,-0.67204 -0.1116,0.0365 -0.12346,0.55594 -0.0182,0.79669 0.0764,0.17465 0.0895,0.16339 0.14546,-0.12465 z m 1.68701,-0.38431 c 0.14154,-0.23989 0.20736,-0.69078 0.11775,-0.80668 -0.11689,-0.1512 -0.27701,0.46044 -0.21168,0.80864 0.0221,0.11766 0.0234,0.11764 0.0939,-0.002 z m -3.92984,-0.189 c 0.16415,-0.0721 0.15622,-0.0924 -0.0804,-0.20587 -0.36553,-0.17523 -0.61286,-0.20774 -0.8195,-0.1077 -0.46808,0.2266 0.40528,0.53091 0.89992,0.31357 z m 1.03925,-0.12567 c 0.44575,-0.76045 0.42156,-1.57253 -0.0292,-0.98148 -0.19448,0.25498 -0.27047,0.68308 -0.18034,1.01604 0.0575,0.21227 0.0657,0.21091 0.20958,-0.0346 z m 4.08085,0.0234 c 0.28175,-0.0734 0.48209,-0.20774 0.51875,-0.34792 0.0443,-0.1693 -0.47602,2e-4 -0.75533,0.24603 -0.18678,0.16441 -0.11771,0.19415 0.23658,0.10189 z m -5.48016,-0.29944 c 0,-0.20557 -0.61244,-0.75849 -0.67102,-0.60581 -0.0598,0.15585 0.24078,0.49233 0.53734,0.60148 0.12196,0.0449 0.13368,0.0453 0.13368,0.004 z m 1.3659,-0.79789 c 0.15178,-0.13683 0.27695,-0.4175 0.20579,-0.46147 -0.11642,-0.0719 -0.42312,0.28973 -0.46512,0.54849 -0.0188,0.11567 0.066,0.0872 0.25933,-0.087 z m 1.81624,-0.23286 c -0.0215,-0.23547 -0.19701,-0.51648 -0.2743,-0.43914 -0.0643,0.0643 0.0292,0.45617 0.15594,0.65386 l 0.0838,0.13079 0.0247,-0.0915 c 0.0135,-0.0504 0.018,-0.16464 0.01,-0.25396 z m -2.32851,0.24054 c -0.008,-0.0218 -0.0935,-0.28368 -0.18927,-0.58203 -0.22727,-0.70819 -0.31239,-0.86533 -0.49337,-0.91075 -0.23155,-0.0581 -0.22722,0.50313 0.007,0.89047 0.17182,0.28431 0.75228,0.80166 0.67578,0.60231 z m 4.42196,-0.41562 c 0.16143,-0.14514 0.26955,-0.34119 0.28829,-0.52275 0.0364,-0.35241 -0.23541,-0.11399 -0.38673,0.33927 -0.11521,0.34511 -0.10419,0.36566 0.0984,0.18348 z m -4.59401,-0.96898 c 0.0541,-0.40902 -0.0124,-0.6913 -0.12314,-0.52215 -0.0674,0.10295 -0.067,0.55189 6.4e-4,0.70071 0.0617,0.13582 0.0855,0.10114 0.12249,-0.17856 z m 1.43762,-0.34036 c -0.1696,-0.50966 -0.70429,-0.92772 -0.70626,-0.55219 -9.5e-4,0.19803 0.18143,0.4307 0.50521,0.64422 0.27431,0.18091 0.28956,0.17392 0.20105,-0.092 z m 1.1582,-0.20817 c 0.0762,-0.2859 0.051,-0.53112 -0.0681,-0.66274 -0.14897,-0.16465 -0.20011,0.0899 -0.0981,0.48868 0.0278,0.10889 0.0575,0.23034 0.0659,0.26991 0.0239,0.11261 0.052,0.0858 0.10037,-0.0958 z m -0.8757,-0.20185 c -0.1298,-0.23168 -0.33903,-0.38896 -0.51746,-0.38896 -0.25826,0 0.0984,0.3912 0.43077,0.47247 0.1458,0.0357 0.15076,0.0309 0.0867,-0.0835 z"
       id="path4229"
       sodipodi:nodetypes="cccccccccssscsssssscscssssccssssssscsscssccsssscssssssssssssssssssssccsccsssssscssssscsssscssssscsssssssccsssscsssssssssssssccssssssssssssssssssssssssssssssssssssscsssssssssscssccssssssssssssssssssssssssscssssssssssssssssssscsssssssssss" /><rect
       style="fill:url(#linearGradient20198);fill-opacity:1;stroke-width:0.0413237;stroke-linecap:round;stroke-linejoin:round;stroke-miterlimit:1.4;stroke-dashoffset:1.13386;paint-order:markers fill stroke"
       id="rect20186"
       width="71.108078"
       height="21.168709"
       x="23.874205"
       y="32.249264"
       ry="1.5674938" /><text
       xml:space="preserve"
       style="font-weight:bold;font-size:5.60158px;font-family:Roboto;-inkscape-font-specification:'Roboto Bold';fill:#ffffff;stroke-width:0.264642;stroke-linecap:round;stroke-linejoin:round;stroke-miterlimit:1.4;stroke-dashoffset:1.13386;paint-order:markers fill stroke"
       x="41.893051"
       y="42.778915"
       id="text20190"><tspan
         sodipodi:role="line"
         id="tspan20188"
         style="font-style:normal;font-variant:normal;font-weight:900;font-stretch:normal;font-family:Roboto;-inkscape-font-specification:'Roboto Heavy';fill:#ffffff;stroke-width:0.264642"
         x="41.893051"
         y="42.778915">Willow Automation</tspan></text><text
       xml:space="preserve"
       style="font-weight:bold;font-size:2.49222px;font-family:Roboto;-inkscape-font-specification:'Roboto Bold';fill:#ffffff;stroke-width:0.117743;stroke-linecap:round;stroke-linejoin:round;stroke-miterlimit:1.4;stroke-dashoffset:1.13386;paint-order:markers fill stroke"
       x="41.98027"
       y="46.98645"
       id="text20194"><tspan
         sodipodi:role="line"
         id="tspan20192"
         style="stroke-width:0.117743"
         x="41.98027"
         y="46.98645">Automation Software Solutions</tspan></text><path
       style="fill:#fff6ff;fill-opacity:1;stroke-width:0.0261583"
       d="m 30.16722,42.916348 v -4.3292 c 3.02565,0 6.0513,0 9.07694,0 v 4.3292 4.3292 h -4.53847 -4.53847 z m 4.54632,3.38227 c 0.0173,-0.0173 0.0314,-0.0806 0.0314,-0.14068 0,-0.3759 0.40662,-0.78283 0.69319,-0.69372 0.18822,0.0585 0.54491,0.0915 0.65396,0.0604 0.21189,-0.0604 -0.0669,-0.22757 -0.37499,-0.22487 -0.22479,0.002 -0.20802,-0.0126 0.12654,-0.10971 0.22479,-0.0653 0.29205,-0.0726 0.70622,-0.0768 0.54942,-0.006 0.93511,-0.10893 0.98641,-0.26422 0.0727,-0.22018 -0.82396,-0.11581 -1.15861,0.13485 -0.0552,0.0414 -0.14506,0.0694 -0.28497,0.0888 -0.25526,0.0355 -0.47799,0.0927 -0.67844,0.17412 -0.1803,0.0733 -0.23739,0.0812 -0.14542,0.0201 0.38928,-0.25838 0.84633,-0.97719 0.66546,-1.04659 -0.42023,-0.16126 -1.04462,0.4612 -1.0452,1.04196 -3e-4,0.2637 -0.004,0.28358 -0.0678,0.35314 -0.0371,0.0405 -0.093,0.10767 -0.12425,0.14917 -0.0733,0.0974 -0.0799,-0.14667 -0.0159,-0.58219 0.0734,-0.49868 0.21325,-0.65006 0.86468,-0.93574 l 0.38925,-0.1707 0.61472,-0.007 c 0.67764,-0.007 0.88217,-0.037 1.16529,-0.16904 0.29492,-0.13759 0.54924,-0.43692 0.44148,-0.51962 -0.36561,-0.28055 -0.99381,-0.18123 -1.65908,0.26231 -0.18255,0.1217 -0.19057,0.12463 -0.11528,0.0421 0.0445,-0.0488 0.10697,-0.13235 0.13882,-0.18573 0.0477,-0.0799 0.10984,-0.12234 0.35071,-0.23964 0.82572,-0.40209 1.19293,-0.87069 1.16386,-1.48525 l -0.008,-0.16609 -0.11771,0.008 c -0.41076,0.0278 -0.9089,0.57871 -1.12386,1.24284 -0.0503,0.15541 -0.051,0.10518 -0.002,-0.16524 0.0361,-0.20074 0.0756,-0.3097 0.20511,-0.56684 0.3166,-0.62846 0.40623,-1.19845 0.24324,-1.54697 -0.19194,-0.41039 -0.58626,0.25146 -0.58588,0.98336 l 2e-4,0.29518 -0.0479,-0.13823 c -0.0862,-0.24885 -0.30611,-0.37408 -0.28805,-0.16405 0.025,0.29093 0.39745,0.90044 0.37941,0.62092 -0.003,-0.0539 0.009,-0.0118 0.0274,0.0937 0.0275,0.15595 0.0276,0.23072 6.3e-4,0.3999 -0.12518,0.78184 -0.45093,1.16275 -1.2504,1.46214 -0.31205,0.11687 -0.47562,0.19333 -0.54612,0.25532 -0.0631,0.0554 -0.0752,0.033 -0.0415,-0.0768 0.0254,-0.0827 0.0448,-0.0981 0.17572,-0.13922 0.48175,-0.15128 0.92876,-0.47472 1.09555,-0.79268 0.18968,-0.36162 0.31415,-1.00308 0.22524,-1.16082 -0.0177,-0.0314 -0.28215,0.0454 -0.40546,0.11765 -0.3496,0.20491 -0.57013,0.52535 -0.82203,1.19443 -0.14819,0.3936 -0.14501,0.35136 0.0114,-0.15193 0.0702,-0.22576 0.15417,-0.5223 0.18668,-0.65897 0.0543,-0.22833 0.0643,-0.24883 0.12373,-0.25245 0.24686,-0.0151 0.70536,-0.37056 0.76053,-0.58965 0.12842,-0.51 -0.46294,-0.18809 -0.74373,0.40485 -0.0355,0.075 -0.059,0.11686 -0.0521,0.093 0.007,-0.0239 0.0269,-0.14163 0.0445,-0.26159 0.0391,-0.26576 0.0303,-0.25518 0.44591,-0.5345 0.59677,-0.40104 0.87383,-0.77256 0.90523,-1.21386 0.0257,-0.36179 -0.0774,-0.4338 -0.39614,-0.27664 -0.39795,0.19622 -0.66731,0.62898 -0.84786,1.36221 -0.0245,0.0996 -0.026,0.0952 -0.031,-0.0916 -0.003,-0.1079 -0.0188,-0.26015 -0.0354,-0.33833 -0.0302,-0.14215 -0.0302,-0.14215 0.17395,-0.35314 0.55885,-0.57761 0.6639,-1.33394 0.14901,-1.07281 -0.23726,0.12033 -0.36289,0.45045 -0.36779,0.96645 -0.003,0.26159 -0.003,0.26159 -0.0462,0.13919 -0.0241,-0.0673 -0.0526,-0.13109 -0.0634,-0.1417 -0.0108,-0.0106 -0.0196,-0.0617 -0.0196,-0.11354 0,-0.39636 -0.30465,-0.94874 -0.59512,-1.07905 -0.52978,-0.23767 -0.22559,0.65019 0.35841,1.04612 0.0784,0.0532 0.15251,0.10357 0.16464,0.112 0.0398,0.0277 0.14329,0.37376 0.15965,0.53399 l 0.016,0.15695 -0.0481,-0.13109 c -0.17749,-0.48386 -0.4603,-0.78521 -0.81346,-0.8668 -0.24445,-0.0565 -0.27222,0.0584 -0.10385,0.42974 0.13352,0.29449 0.70473,0.76434 0.92923,0.76434 0.10373,0 -0.0252,0.73255 -0.25791,1.46487 l -0.0873,0.27466 0.0109,-0.30082 c 0.0397,-1.09637 -0.35388,-1.99232 -1.03166,-2.34836 -0.2248,-0.11808 -0.23296,-0.11533 -0.27289,0.0922 -0.16135,0.83848 0.26839,1.87794 1.07525,2.60082 l 0.15544,0.13927 -0.1803,0.51008 c -0.0992,0.28055 -0.20681,0.6072 -0.23921,0.7259 -0.0706,0.25847 -0.0687,0.25798 -0.17192,0.0453 -0.0451,-0.0929 -0.0724,-0.16301 -0.0607,-0.15579 0.12141,0.075 0.16717,-1.08909 0.0572,-1.45396 -0.25074,-0.83157 -0.64373,-0.73512 -0.64543,0.15841 -6.4e-4,0.41732 0.0276,0.49801 0.32148,0.91188 0.29994,0.42248 0.30404,0.43116 0.0697,0.14753 -0.0832,-0.10071 -0.23642,-0.27139 -0.34045,-0.3793 -0.67002,-0.69495 -0.82125,-1.26994 -0.51941,-1.97495 0.36884,-0.86151 0.40705,-1.5637 0.10398,-1.91072 -0.11123,-0.12736 -0.14088,-0.11585 -0.29342,0.11386 -0.24572,0.37003 -0.29176,1.0619 -0.11434,1.71839 0.0737,0.27271 0.0855,0.36023 0.0898,0.66703 0.003,0.19423 0.013,0.38845 0.0227,0.43162 0.0216,0.0953 -0.0269,-0.003 -0.18016,-0.36622 -0.32294,-0.76462 -1.13602,-1.52558 -1.21739,-1.13937 -0.12556,0.59591 0.60418,1.61614 1.35957,1.90078 0.16949,0.0639 0.23065,0.10088 0.27039,0.16364 l 0.0514,0.0811 -0.11596,-0.0513 c -0.4646,-0.20552 -1.15753,-0.18249 -1.47166,0.0489 -0.69056,0.50866 0.55366,0.66619 1.61166,0.20406 0.094,-0.041 0.094,-0.041 0.26158,0.14583 0.28168,0.3141 0.28703,0.32268 0.16107,0.25841 -0.47435,-0.24199 -1.19434,-0.1715 -1.36574,0.13371 -0.13259,0.23612 0.76188,0.39908 1.33303,0.24287 0.36493,-0.0998 0.33432,-0.10837 0.45016,0.12582 0.13004,0.26291 0.23379,1.19945 0.14294,1.2903 -0.004,0.004 -0.0636,-0.16059 -0.1331,-0.36499 -0.31782,-0.93405 -0.80747,-1.27091 -0.73728,-0.50723 0.0466,0.50662 0.37299,0.9482 0.78652,1.06398 0.0868,0.0243 0.13169,0.0544 0.15852,0.10626 0.0527,0.10189 0.17599,0.13842 0.24255,0.0718 z m 1.94702,-4.33705 c 0,-0.0503 0.005,-0.0709 0.012,-0.0458 0.007,0.0252 0.007,0.0664 0,0.0916 -0.007,0.0252 -0.012,0.005 -0.012,-0.0458 z m -0.95926,4.18327 c 0.44662,-0.11699 0.68038,-0.28655 0.53638,-0.38908 -0.3342,-0.23798 -1.03626,-0.14382 -1.36285,0.18277 -0.13148,0.13148 -0.13021,0.14335 0.0205,0.19176 0.26037,0.0836 0.52402,0.0884 0.80596,0.0145 z m -1.9275,-0.19739 c 0.11233,-0.0225 0.10434,-0.0435 -0.0687,-0.18046 -0.31811,-0.25186 -0.69692,-0.36388 -0.89106,-0.26349 -0.29138,0.15068 0.52888,0.53011 0.95972,0.44395 z m 3.19132,-0.41854 c 0.18949,-0.0379 0.0301,-0.23947 -0.25468,-0.32197 -0.42585,-0.12339 -0.66385,-0.0962 -0.51348,0.0586 0.19293,0.19866 0.52407,0.31219 0.76816,0.26337 z m -3.42347,-0.0762 c 0,-0.0373 -0.12087,-0.24708 -0.20289,-0.35209 -0.33976,-0.43497 -0.88887,-0.67017 -1.22928,-0.52653 -0.29033,0.1225 0.20024,0.6704 0.71771,0.80158 0.21761,0.0552 0.71446,0.10875 0.71446,0.077 z m 0.83707,-0.29879 c 0,-0.18989 -0.23183,-0.52852 -0.3814,-0.55711 -0.16079,-0.0307 -0.067,0.21266 0.17263,0.44784 0.17545,0.17222 0.20877,0.18965 0.20877,0.10927 z m 1.77876,-0.21778 c 0.31619,-0.15508 0.54864,-0.43054 0.37275,-0.44174 -0.36314,-0.0231 -0.81744,0.298 -0.81744,0.57778 0,0.037 0.24423,-0.0377 0.44469,-0.13604 z m 1.50287,-0.25825 c 0.25987,-0.11841 -0.39487,-0.47166 -1.0207,-0.55071 -0.27729,-0.035 -0.30204,-0.0266 -0.22192,0.0752 0.2492,0.31681 0.97845,0.59585 1.24262,0.47549 z m -5.45857,-0.30747 c 0.14333,-0.073 0.39699,-0.29987 0.36787,-0.329 -0.10818,-0.10817 -0.7797,0.2236 -0.78051,0.38562 -3e-4,0.0532 0.26982,0.0161 0.41264,-0.0566 z m 5.64056,-0.11728 c 0.12269,-0.0513 0.13405,-0.0856 0.0437,-0.13234 -0.14084,-0.0728 -0.51648,-0.0446 -0.64366,0.0484 -0.11742,0.0858 0.41653,0.16054 0.59992,0.0839 z m -3.08419,-0.46119 c 0.0649,-0.3343 -0.007,-0.71157 -0.12728,-0.67204 -0.1116,0.0365 -0.12346,0.55594 -0.0182,0.79669 0.0764,0.17465 0.0895,0.16339 0.14546,-0.12465 z m 1.68701,-0.38431 c 0.14154,-0.23989 0.20736,-0.69078 0.11775,-0.80668 -0.11689,-0.1512 -0.27701,0.46044 -0.21168,0.80864 0.0221,0.11766 0.0234,0.11764 0.0939,-0.002 z m -3.92984,-0.189 c 0.16415,-0.0721 0.15622,-0.0924 -0.0804,-0.20587 -0.36553,-0.17523 -0.61286,-0.20774 -0.8195,-0.1077 -0.46808,0.2266 0.40528,0.53091 0.89992,0.31357 z m 1.03925,-0.12567 c 0.44575,-0.76045 0.42156,-1.57253 -0.0292,-0.98148 -0.19448,0.25498 -0.27047,0.68308 -0.18034,1.01604 0.0575,0.21227 0.0657,0.21091 0.20958,-0.0346 z m 4.08085,0.0234 c 0.28175,-0.0734 0.48209,-0.20774 0.51875,-0.34792 0.0443,-0.1693 -0.47602,2e-4 -0.75533,0.24603 -0.18678,0.16441 -0.11771,0.19415 0.23658,0.10189 z m -5.48016,-0.29944 c 0,-0.20557 -0.61244,-0.75849 -0.67102,-0.60581 -0.0598,0.15585 0.24078,0.49233 0.53734,0.60148 0.12196,0.0449 0.13368,0.0453 0.13368,0.004 z m 1.3659,-0.79789 c 0.15178,-0.13683 0.27695,-0.4175 0.20579,-0.46147 -0.11642,-0.0719 -0.42312,0.28973 -0.46512,0.54849 -0.0188,0.11567 0.066,0.0872 0.25933,-0.087 z m 1.81624,-0.23286 c -0.0215,-0.23547 -0.19701,-0.51648 -0.2743,-0.43914 -0.0643,0.0643 0.0292,0.45617 0.15594,0.65386 l 0.0838,0.13079 0.0247,-0.0915 c 0.0135,-0.0504 0.018,-0.16464 0.01,-0.25396 z m -2.32851,0.24054 c -0.008,-0.0218 -0.0935,-0.28368 -0.18927,-0.58203 -0.22727,-0.70819 -0.31239,-0.86533 -0.49337,-0.91075 -0.23155,-0.0581 -0.22722,0.50313 0.007,0.89047 0.17182,0.28431 0.75228,0.80166 0.67578,0.60231 z m 4.42196,-0.41562 c 0.16143,-0.14514 0.26955,-0.34119 0.28829,-0.52275 0.0364,-0.35241 -0.23541,-0.11399 -0.38673,0.33927 -0.11521,0.34511 -0.10419,0.36566 0.0984,0.18348 z m -4.59401,-0.96898 c 0.0541,-0.40902 -0.0124,-0.6913 -0.12314,-0.52215 -0.0674,0.10295 -0.067,0.55189 6.4e-4,0.70071 0.0617,0.13582 0.0855,0.10114 0.12249,-0.17856 z m 1.43762,-0.34036 c -0.1696,-0.50966 -0.70429,-0.92772 -0.70626,-0.55219 -9.5e-4,0.19803 0.18143,0.4307 0.50521,0.64422 0.27431,0.18091 0.28956,0.17392 0.20105,-0.092 z m 1.1582,-0.20817 c 0.0762,-0.2859 0.051,-0.53112 -0.0681,-0.66274 -0.14897,-0.16465 -0.20011,0.0899 -0.0981,0.48868 0.0278,0.10889 0.0575,0.23034 0.0659,0.26991 0.0239,0.11261 0.052,0.0858 0.10037,-0.0958 z m -0.8757,-0.20185 c -0.1298,-0.23168 -0.33903,-0.38896 -0.51746,-0.38896 -0.25826,0 0.0984,0.3912 0.43077,0.47247 0.1458,0.0357 0.15076,0.0309 0.0867,-0.0835 z"
       id="path20196"
       sodipodi:nodetypes="cccccccccssscsssssscscssssccssssssscsscssccsssscssssssssssssssssssssccsccsssssscssssscsssscssssscsssssssccsssscsssssssssssssccssssssssssssssssssssssssssssssssssssscsssssssssscssccssssssssssssssssssssssssscssssssssssssssssssscsssssssssss" /></g></svg>
