<?xml version="1.0" encoding="UTF-8" standalone="no"?>
<!-- Generator: Adobe Illustrator 27.5.0, SVG Export Plug-In . SVG Version: 6.00 Build 0)  -->

<svg
   version="1.1"
   x="0px"
   y="0px"
   viewBox="0 0 500 500"
   style="enable-background:new 0 0 500 500;"
   xml:space="preserve"
   id="svg550"
   sodipodi:docname="HERO.svg"
   inkscape:version="1.2.2 (732a01da63, 2022-12-09)"
   xmlns:inkscape="http://www.inkscape.org/namespaces/inkscape"
   xmlns:sodipodi="http://sodipodi.sourceforge.net/DTD/sodipodi-0.dtd"
   xmlns="http://www.w3.org/2000/svg"
   xmlns:svg="http://www.w3.org/2000/svg"><defs
   id="defs554" /><sodipodi:namedview
   id="namedview552"
   pagecolor="#ffffff"
   bordercolor="#000000"
   borderopacity="0.25"
   inkscape:showpageshadow="2"
   inkscape:pageopacity="0.0"
   inkscape:pagecheckerboard="0"
   inkscape:deskcolor="#d1d1d1"
   showgrid="false"
   showguides="false"
   inkscape:zoom="0.70710678"
   inkscape:cx="272.23611"
   inkscape:cy="306.88434"
   inkscape:window-width="1920"
   inkscape:window-height="1057"
   inkscape:window-x="-8"
   inkscape:window-y="-8"
   inkscape:window-maximized="1"
   inkscape:current-layer="svg550" />
<g
   id="Floor"
   transform="matrix(0.93846784,0,0,0.93846784,-5.8992088,41.280439)"
   inkscape:export-filename="Hero.png"
   inkscape:export-xdpi="96"
   inkscape:export-ydpi="96">
	<path
   id="Floor_9_"
   style="fill:#f5f5f5"
   d="m 77.668,447.583 c -95.176,-54.95 -95.176,-144.042 0,-198.991 95.176,-54.949 249.487,-54.949 344.663,0 95.176,54.949 95.176,144.041 0,198.991 -95.176,54.951 -249.487,54.951 -344.663,0 z" />
</g>
<g
   id="Shadows"
   transform="matrix(0.93846784,0,0,0.93846784,20.672452,26.464143)">
	
	
	<path
   id="Shadow_16_"
   style="fill:#e0e0e0"
   d="m 287.428,280.778 -4.453,-2.571 c -3.02,-1.744 -7.917,-1.744 -10.938,0 L 36.735,414.06 c -3.008,1.737 -3.008,4.578 0,6.315 l 4.453,2.571 c 3.008,1.736 7.93,1.737 10.937,0 l 71.482,-41.27 31.806,18.364 c 8.197,4.732 21.611,4.732 29.808,0 l 54.903,-31.723 c 7,-4.041 7,-10.655 0,-14.696 L 206.142,334 287.429,287.094 c 3.007,-1.738 3.007,-4.58 -10e-4,-6.316 z" />
	<g
   id="Shadow_14_">
		<path
   style="fill:#e0e0e0"
   d="m 447.347,398.817 c -12.447,-6.291 -16.566,-8.947 -16.432,-12.28 0.095,-2.395 2.575,-3.965 6.802,-4.306 1.945,-0.155 2.967,-0.6 3.404,-0.851 0.238,-0.137 0.522,-0.363 0.522,-0.532 0,-0.24 -0.336,-1.055 -1.866,-1.938 -1.521,-0.878 -3.558,-1.402 -5.452,-1.402 -1.245,0 -2.316,0.224 -3.016,0.629 -0.534,0.309 -0.858,0.692 -0.966,1.144 -0.525,2.171 -2.58,4.379 -5.988,4.426 -0.001,0 -0.002,0 -0.002,0 -4.61,0 -11.024,-4.019 -20.292,-10.148 l -1.004,-0.664 c -0.839,-0.555 -0.802,-1.799 0.069,-2.303 l 44.688,-25.843 1.085,0.716 c 7.602,5.021 13.608,8.988 17.409,8.988 2.33,-0.033 2.764,-1.355 2.829,-1.619 0.334,-1.453 1.297,-2.713 2.704,-3.526 1.195,-0.693 2.768,-1.061 4.544,-1.061 2.41,0 4.949,0.668 6.966,1.833 2.379,1.372 3.744,3.283 3.743,5.243 0,1.559 -0.874,2.956 -2.396,3.834 -1.19,0.687 -2.773,1.113 -4.701,1.263 -1.833,0.15 -2.989,0.571 -3.489,0.863 1.1,1.543 6.262,4.654 15.367,9.259 l 1.225,0.62 c 0.959,0.485 0.999,1.84 0.069,2.38 l -1.187,0.69 c -1.758,1.021 -3.363,1.976 -4.825,2.846 -6.258,3.729 -10.035,5.979 -13.771,5.98 l -0.114,-10e-4 c -3.424,-0.043 -5.48,-2.257 -5.997,-4.431 -0.112,-0.447 -0.435,-0.837 -0.958,-1.138 -0.707,-0.408 -1.783,-0.633 -3.029,-0.633 -1.891,0 -3.925,0.524 -5.442,1.402 -1.538,0.886 -1.874,1.701 -1.874,1.941 0,0.17 0.285,0.395 0.529,0.536 0.43,0.247 1.445,0.688 3.402,0.851 4.223,0.328 6.708,1.894 6.81,4.292 0.107,3 -3.677,5.232 -12.246,9.995 -1.659,0.922 -3.36,1.874 -5.124,2.891 l -0.982,0.566 z"
   id="path7" />
	</g>
	<g
   id="Shadow_12_">
		<path
   style="fill:#e0e0e0"
   d="m 390.127,436.146 c -14.716,-7.421 -19.16,-10.682 -19.021,-13.961 0.099,-2.633 2.832,-4.372 7.498,-4.76 1.72,-0.133 2.583,-0.504 2.945,-0.713 0.249,-0.145 0.31,-0.249 0.311,-0.25 -0.013,-0.086 -0.312,-0.785 -1.648,-1.557 -1.373,-0.794 -3.191,-1.266 -4.861,-1.266 -1.012,0 -1.909,0.181 -2.46,0.5 -0.599,0.345 -0.696,0.744 -0.728,0.876 -0.517,2.184 -2.604,4.769 -6.776,4.829 h -0.108 c -4.378,0.001 -9.297,-3.292 -16.107,-7.849 -0.982,-0.657 -2.002,-1.339 -3.059,-2.037 l -0.501,-0.331 c -1.035,-0.684 -1.021,-2.208 0.027,-2.872 l 2.284,-1.447 c 4.916,-2.83 10.916,-6.287 12.492,-8.063 -0.517,-0.204 -1.399,-0.44 -2.629,-0.539 -2.623,-0.209 -4.256,-0.879 -5.166,-1.404 -1.67,-0.964 -2.629,-2.484 -2.629,-4.17 0,-2.086 1.446,-4.117 3.967,-5.572 2.162,-1.248 4.914,-1.964 7.552,-1.964 2.001,0 3.772,0.412 5.123,1.193 1.546,0.893 2.565,2.208 2.948,3.802 0.066,0.275 0.406,1.184 1.963,1.208 v 0 c 3.196,0 8.046,-2.806 15.388,-7.054 l 3.378,-1.875 0.994,0.504 c 12.088,6.131 17.12,9.274 16.99,12.869 -0.127,2.633 -2.936,4.406 -7.516,4.769 -1.702,0.136 -2.571,0.512 -2.937,0.722 -0.245,0.141 -0.305,0.245 -0.305,0.246 0.013,0.085 0.312,0.782 1.644,1.55 1.378,0.796 3.202,1.272 4.879,1.272 v 0 c 1.008,0 1.897,-0.181 2.441,-0.494 0.602,-0.348 0.693,-0.74 0.724,-0.871 0.581,-2.383 2.904,-4.791 6.792,-4.84 l 0.116,-10e-4 c 4.563,0 10.801,3.708 19.433,8.838 l 3.233,1.904 c 1.138,0.67 1.12,2.322 -0.033,2.966 l -1.183,0.663 -42.872,24.742 -0.674,0.442 c -0.511,0.335 -1.162,0.372 -1.707,0.097 z"
   id="path10" />
	</g>
	<path
   id="Shadow_3_"
   style="fill:#e0e0e0"
   d="m 238.967,466.344 c 23.042,13.303 60.401,13.303 83.443,0 23.042,-13.303 23.042,-34.872 0,-48.176 -23.042,-13.303 -60.4,-13.303 -83.442,0 -23.043,13.303 -23.043,34.872 -10e-4,48.176 z" />
</g>
<g
   id="Gears"
   transform="matrix(0.93846784,0,0,0.93846784,20.672452,26.464143)">
	<g
   id="Gears_1_">
		<g
   id="XMLID_4018_">
			<path
   style="fill:#e0e0e0"
   d="m 458,111.525 -3.515,-7.934 c -0.251,-0.562 -1.06,-1.245 -1.733,-1.464 -0.887,-0.291 -1.794,-0.658 -2.699,-1.094 -0.174,-0.088 -0.346,-0.102 -0.488,-0.044 -0.124,0.049 -0.216,0.152 -0.273,0.306 l -1.765,4.708 c -0.27,0.718 -0.801,1.223 -1.459,1.384 -0.662,0.164 -1.364,-0.041 -1.936,-0.555 l -6.08,-5.467 c -0.93,-0.836 -1.509,-2.401 -1.35,-3.641 l 0.786,-6.078 c 0.088,-0.665 -0.205,-1.752 -0.624,-2.327 -0.972,-1.331 -1.905,-2.75 -2.77,-4.217 -0.31,-0.526 -1.125,-1.013 -1.708,-1.022 l -4.137,-0.07 c -1.339,-0.022 -2.697,-0.986 -3.162,-2.242 l -3.301,-8.947 c -0.247,-0.668 -0.216,-1.388 0.086,-2.028 0.3,-0.64 0.836,-1.122 1.507,-1.357 l 3.426,-1.2 c 0.428,-0.15 0.738,-0.691 0.662,-1.16 -0.229,-1.451 -0.382,-2.897 -0.449,-4.299 -0.034,-0.732 -0.472,-1.802 -0.939,-2.289 l -5.334,-5.601 c -0.874,-0.914 -1.306,-2.528 -1.01,-3.754 l 1.476,-6.127 c 0.182,-0.754 0.65,-1.316 1.285,-1.544 0.637,-0.227 1.358,-0.09 1.976,0.379 l 5.43,4.113 c 0.352,0.267 0.754,0.083 0.981,-0.199 0.402,-0.5 0.838,-0.968 1.297,-1.388 0.455,-0.42 0.717,-1.188 0.572,-1.678 l -2.377,-8.024 c -0.207,-0.691 -0.111,-1.424 0.258,-2.008 0.369,-0.585 0.991,-0.984 1.706,-1.096 l 4.344,-0.673 c 1.343,-0.208 2.829,0.603 3.382,1.847 l 3.517,7.935 c 0.247,0.561 1.054,1.243 1.727,1.463 0.891,0.291 1.8,0.658 2.701,1.094 0.172,0.085 0.35,0.101 0.488,0.044 0.124,-0.049 0.216,-0.152 0.274,-0.306 l 1.765,-4.708 c 0.27,-0.719 0.803,-1.223 1.461,-1.385 0.658,-0.156 1.363,0.042 1.934,0.556 l 6.078,5.466 c 0.933,0.836 1.513,2.402 1.352,3.642 l -0.786,6.076 c -0.086,0.667 0.207,1.755 0.626,2.328 0.968,1.326 1.899,2.745 2.769,4.219 0.31,0.524 1.123,1.011 1.708,1.02 l 4.137,0.07 c 1.341,0.022 2.699,0.987 3.16,2.241 l 3.303,8.949 c 0.245,0.668 0.214,1.388 -0.088,2.027 -0.302,0.64 -0.838,1.122 -1.507,1.356 l -3.424,1.2 c -0.428,0.15 -0.738,0.692 -0.664,1.16 0.233,1.467 0.384,2.913 0.449,4.297 0.036,0.734 0.474,1.805 0.939,2.291 l 5.338,5.602 c 0.87,0.914 1.303,2.526 1.008,3.752 l -1.479,6.128 c -0.182,0.754 -0.65,1.316 -1.285,1.543 -0.631,0.227 -1.354,0.089 -1.974,-0.379 l -5.432,-4.112 c -0.356,-0.264 -0.755,-0.08 -0.981,0.198 -0.4,0.497 -0.834,0.964 -1.295,1.389 -0.455,0.419 -0.719,1.187 -0.574,1.677 l 2.377,8.024 c 0.206,0.691 0.113,1.424 -0.256,2.008 -0.371,0.585 -0.993,0.984 -1.708,1.096 l -4.342,0.673 c -0.141,0.022 -0.285,0.033 -0.43,0.033 -1.218,0.002 -2.458,-0.764 -2.951,-1.877 z m 11.322,-14.756 5.432,4.112 c 0.082,0.062 0.138,0.084 0.151,0.097 0.017,-0.024 0.048,-0.078 0.071,-0.177 l 1.478,-6.128 c 0.144,-0.591 -0.111,-1.531 -0.53,-1.972 l -5.338,-5.602 c -0.778,-0.816 -1.41,-2.331 -1.467,-3.527 -0.063,-1.315 -0.206,-2.691 -0.43,-4.089 -0.218,-1.383 0.629,-2.824 1.93,-3.28 l 3.426,-1.2 c 0.178,-0.063 0.321,-0.19 0.401,-0.36 0.079,-0.169 0.086,-0.361 0.021,-0.538 l -3.303,-8.95 c -0.186,-0.504 -0.844,-0.971 -1.383,-0.979 l -4.135,-0.07 c -1.255,-0.021 -2.689,-0.868 -3.338,-1.969 -0.838,-1.42 -1.735,-2.786 -2.666,-4.062 -0.706,-0.968 -1.129,-2.563 -0.981,-3.71 l 0.786,-6.078 c 0.081,-0.613 -0.266,-1.547 -0.727,-1.961 l -6.08,-5.467 c -0.103,-0.094 -0.176,-0.115 -0.182,-0.118 -0.015,0.009 -0.071,0.06 -0.119,0.191 l -1.765,4.707 c -0.249,0.664 -0.733,1.168 -1.362,1.42 -0.647,0.26 -1.375,0.225 -2.045,-0.1 -0.822,-0.398 -1.651,-0.732 -2.458,-0.996 -1.035,-0.337 -2.36,-1.309 -2.894,-2.515 l -3.517,-7.935 c -0.201,-0.454 -0.836,-0.803 -1.323,-0.723 l -4.342,0.673 c -0.17,0.026 -0.298,0.102 -0.375,0.221 -0.073,0.118 -0.086,0.266 -0.038,0.43 l 2.377,8.024 c 0.354,1.191 -0.115,2.723 -1.115,3.644 -0.388,0.356 -0.757,0.752 -1.098,1.176 -0.935,1.164 -2.507,1.392 -3.647,0.528 l -5.43,-4.112 c -0.082,-0.063 -0.14,-0.085 -0.153,-0.097 -0.017,0.023 -0.046,0.077 -0.071,0.177 l -1.477,6.128 v 0.002 c -0.143,0.59 0.109,1.529 0.53,1.97 l 5.334,5.601 c 0.782,0.818 1.413,2.334 1.469,3.527 0.065,1.331 0.21,2.707 0.43,4.088 0.22,1.383 -0.625,2.825 -1.928,3.282 l -3.427,1.2 c -0.178,0.063 -0.321,0.19 -0.4,0.36 -0.08,0.168 -0.088,0.36 -0.021,0.538 l 3.301,8.948 c 0.186,0.505 0.845,0.973 1.385,0.981 l 4.135,0.07 c 1.251,0.021 2.685,0.867 3.337,1.97 0.834,1.414 1.731,2.781 2.666,4.061 0.708,0.97 1.129,2.566 0.979,3.71 l -0.786,6.076 c -0.078,0.614 0.268,1.549 0.727,1.963 l 6.08,5.466 c 0.103,0.094 0.178,0.116 0.182,0.119 0.015,-0.008 0.071,-0.06 0.119,-0.191 l 1.765,-4.707 c 0.249,-0.664 0.732,-1.168 1.364,-1.42 0.652,-0.261 1.379,-0.222 2.043,0.099 0.824,0.399 1.652,0.733 2.458,0.997 1.033,0.336 2.358,1.307 2.896,2.515 l 3.517,7.936 c 0.201,0.456 0.836,0.802 1.324,0.722 l 4.342,-0.673 c 0.168,-0.026 0.298,-0.102 0.373,-0.22 0.073,-0.118 0.088,-0.267 0.038,-0.431 l -2.377,-8.025 c -0.352,-1.192 0.117,-2.724 1.115,-3.642 0.386,-0.356 0.754,-0.749 1.1,-1.178 0.555,-0.69 1.331,-1.05 2.108,-1.05 0.536,0 1.074,0.171 1.538,0.523 z m -24.087,-9.854 v 0 c -6.815,-6.128 -10.885,-17.227 -9.073,-24.742 0.822,-3.408 2.76,-5.745 5.457,-6.582 3.328,-1.033 7.409,0.335 11.208,3.752 6.817,6.127 10.887,17.227 9.075,24.741 -0.822,3.407 -2.76,5.745 -5.457,6.582 -0.727,0.226 -1.49,0.337 -2.278,0.337 -2.819,0 -5.964,-1.418 -8.932,-4.088 z m -3.047,-29.483 c -2.05,0.637 -3.487,2.432 -4.152,5.193 -1.664,6.9 2.144,17.154 8.488,22.859 3.282,2.949 6.686,4.165 9.351,3.342 2.05,-0.637 3.487,-2.433 4.152,-5.193 1.664,-6.9 -2.144,-17.153 -8.49,-22.858 -2.607,-2.345 -5.294,-3.596 -7.624,-3.596 -0.6,0 -1.178,0.083 -1.725,0.253 z"
   id="path15" />
		</g>
		<g
   id="XMLID_4042_">
			<path
   style="fill:#e0e0e0"
   d="m 399.886,81.738 -2.138,-4.819 c -0.134,-0.304 -0.592,-0.691 -0.963,-0.811 -0.55,-0.18 -1.108,-0.406 -1.658,-0.673 -0.065,-0.032 -0.131,-0.046 -0.272,0.084 l -1.071,2.857 c -0.18,0.48 -0.537,0.818 -0.983,0.928 -0.442,0.105 -0.919,-0.025 -1.302,-0.368 l -3.69,-3.319 c -0.596,-0.536 -0.967,-1.539 -0.864,-2.333 l 0.477,-3.689 c 0.048,-0.368 -0.122,-0.994 -0.355,-1.314 -0.596,-0.818 -1.165,-1.683 -1.688,-2.57 -0.164,-0.279 -0.612,-0.548 -0.921,-0.553 l -2.511,-0.043 c -0.868,-0.015 -1.748,-0.64 -2.045,-1.451 l -2.006,-5.433 c -0.163,-0.44 -0.143,-0.915 0.056,-1.336 0.198,-0.423 0.551,-0.742 0.997,-0.898 l 2.078,-0.729 c 0.198,-0.069 0.346,-0.331 0.309,-0.551 -0.14,-0.893 -0.233,-1.775 -0.274,-2.625 -0.02,-0.409 -0.272,-1.028 -0.532,-1.3 l -3.239,-3.401 c -0.559,-0.587 -0.836,-1.622 -0.645,-2.407 l 0.896,-3.72 c 0.12,-0.505 0.438,-0.882 0.87,-1.035 0.43,-0.151 0.914,-0.064 1.327,0.251 l 3.298,2.497 c 0.163,0.12 0.329,-0.004 0.405,-0.097 0.251,-0.313 0.518,-0.599 0.801,-0.858 0.237,-0.219 0.382,-0.628 0.307,-0.877 l -1.444,-4.872 c -0.136,-0.459 -0.073,-0.944 0.173,-1.333 0.246,-0.389 0.657,-0.655 1.131,-0.729 l 2.637,-0.409 c 0.898,-0.141 1.845,0.393 2.2,1.202 l 2.139,4.819 c 0.134,0.304 0.594,0.691 0.963,0.812 0.544,0.178 1.097,0.401 1.658,0.672 0.067,0.034 0.134,0.041 0.272,-0.083 l 1.071,-2.858 c 0.18,-0.481 0.539,-0.818 0.983,-0.928 0.454,-0.11 0.919,0.026 1.301,0.369 l 3.692,3.319 c 0.596,0.535 0.967,1.538 0.864,2.332 l -0.477,3.689 c -0.048,0.368 0.122,0.995 0.355,1.314 0.596,0.818 1.165,1.683 1.688,2.571 0.164,0.279 0.611,0.548 0.921,0.553 l 2.511,0.042 c 0.866,0.015 1.744,0.639 2.045,1.451 l 2.008,5.434 c 0.161,0.441 0.14,0.917 -0.06,1.34 -0.2,0.421 -0.553,0.739 -0.995,0.892 l -2.078,0.729 c -0.198,0.069 -0.346,0.332 -0.313,0.551 0.143,0.892 0.237,1.776 0.276,2.624 0.021,0.411 0.274,1.031 0.534,1.302 l 3.238,3.4 c 0.56,0.586 0.838,1.621 0.649,2.407 l -0.898,3.721 c -0.122,0.504 -0.438,0.881 -0.87,1.035 -0.424,0.151 -0.914,0.063 -1.327,-0.25 l -3.298,-2.496 c -0.156,-0.122 -0.331,0.005 -0.405,0.096 -0.251,0.313 -0.518,0.598 -0.801,0.858 -0.237,0.219 -0.382,0.628 -0.307,0.877 l 1.444,4.872 c 0.136,0.459 0.072,0.945 -0.173,1.334 -0.247,0.389 -0.659,0.654 -1.133,0.726 l -2.635,0.41 c -0.094,0.014 -0.186,0.021 -0.279,0.021 -0.798,0 -1.606,-0.499 -1.924,-1.223 z m 7.084,-9.126 3.215,2.527 0.898,-3.721 c 0.074,-0.308 -0.069,-0.838 -0.29,-1.068 l -3.239,-3.401 c -0.5,-0.526 -0.891,-1.463 -0.93,-2.231 -0.037,-0.796 -0.124,-1.626 -0.26,-2.466 -0.141,-0.904 0.412,-1.846 1.264,-2.145 l 2.08,-0.729 c 0.094,-0.033 0.139,-0.097 0.163,-0.146 0.02,-0.04 0.046,-0.122 0.011,-0.22 l -2.006,-5.433 c -0.094,-0.25 -0.445,-0.501 -0.712,-0.505 l -2.511,-0.042 c -0.804,-0.014 -1.725,-0.557 -2.144,-1.264 -0.5,-0.848 -1.041,-1.674 -1.61,-2.453 -0.447,-0.613 -0.714,-1.625 -0.62,-2.354 l 0.477,-3.689 c 0.041,-0.322 -0.155,-0.853 -0.398,-1.07 l -3.651,-3.329 -1.071,2.858 c -0.164,0.439 -0.486,0.773 -0.905,0.941 -0.435,0.172 -0.915,0.15 -1.354,-0.063 -0.498,-0.241 -0.992,-0.44 -1.476,-0.598 -0.657,-0.215 -1.5,-0.835 -1.838,-1.603 l -2.138,-4.819 c -0.094,-0.215 -0.396,-0.397 -0.654,-0.356 l -2.637,0.409 -0.111,-0.716 -0.027,0.934 1.444,4.873 c 0.228,0.772 -0.072,1.762 -0.718,2.355 -0.23,0.21 -0.447,0.444 -0.652,0.699 -0.619,0.766 -1.651,0.915 -2.405,0.344 l -3.215,-2.527 -0.896,3.72 v 0.002 c -0.076,0.308 0.067,0.836 0.288,1.067 l 3.238,3.4 c 0.495,0.519 0.894,1.477 0.93,2.23 0.039,0.796 0.125,1.627 0.258,2.465 0.147,0.905 -0.406,1.847 -1.26,2.146 l -2.078,0.729 c -0.101,0.035 -0.148,0.108 -0.166,0.148 -0.023,0.049 -0.042,0.125 -0.009,0.218 l 2.008,5.434 c 0.09,0.25 0.444,0.499 0.711,0.504 l 2.509,0.043 c 0.804,0.012 1.727,0.556 2.146,1.264 0.5,0.847 1.041,1.674 1.61,2.454 0.447,0.613 0.714,1.624 0.62,2.352 l -0.477,3.689 c -0.041,0.322 0.156,0.853 0.398,1.071 l 3.651,3.328 1.071,-2.857 c 0.164,-0.439 0.486,-0.774 0.905,-0.942 0.435,-0.174 0.914,-0.15 1.355,0.063 0.497,0.241 0.99,0.44 1.474,0.598 0.658,0.214 1.5,0.834 1.838,1.603 l 2.139,4.818 c 0.094,0.216 0.401,0.389 0.654,0.357 l 2.635,-0.41 0.139,-0.218 -1.444,-4.872 c -0.228,-0.772 0.073,-1.762 0.718,-2.354 0.23,-0.212 0.447,-0.445 0.652,-0.7 0.364,-0.452 0.875,-0.689 1.387,-0.689 0.353,0.001 0.708,0.115 1.016,0.347 z m -14.801,-5.769 v 0 c -4.171,-3.75 -6.661,-10.55 -5.549,-15.157 0.511,-2.118 1.72,-3.573 3.406,-4.096 2.068,-0.642 4.597,0.201 6.938,2.307 4.173,3.749 6.663,10.548 5.551,15.156 -0.511,2.119 -1.72,3.574 -3.406,4.097 -0.454,0.14 -0.931,0.21 -1.424,0.21 -1.747,0.001 -3.687,-0.872 -5.516,-2.517 z m -1.715,-17.87 c -1.196,0.371 -2.036,1.426 -2.428,3.052 -0.998,4.145 1.294,10.31 5.111,13.742 v 0 c 1.953,1.757 3.977,2.489 5.542,2.001 1.197,-0.371 2.036,-1.427 2.428,-3.053 1,-4.146 -1.294,-10.31 -5.113,-13.741 -1.557,-1.401 -3.155,-2.148 -4.533,-2.148 -0.351,0 -0.689,0.048 -1.007,0.147 z"
   id="path18" />
		</g>
	</g>
</g>
<g
   id="Clock"
   transform="matrix(0.93846784,0,0,0.93846784,20.672452,26.464143)">
	<g
   id="Clock_2_">
		<g
   id="g26">
			<path
   id="XMLID_322_"
   style="fill:#37474f"
   d="m 85.227,57.85 10e-4,-0.002 -0.05,-0.026 c -0.002,-0.001 -0.004,-0.001 -0.006,-0.003 l -4.145,-2.47 C 81.023,55.347 81.02,55.345 81.016,55.343 l -0.071,-0.037 -10e-4,0.003 C 75.265,52.431 67.678,53.277 59.51,58.536 43.1,69.105 30.565,93.475 31.512,112.969 c 0.472,9.717 4.206,16.386 9.863,19.326 l -10e-4,0.002 0.05,0.026 c 0.002,0.001 0.004,0.002 0.006,0.003 l 4.147,2.472 c 0.002,0.001 0.003,0.002 0.005,0.003 l 0.06,0.031 10e-4,-0.003 c 5.681,2.887 13.273,2.044 21.449,-3.22 C 83.501,121.042 96.036,96.672 95.089,77.177 94.617,67.459 90.884,60.79 85.227,57.85 Z" />
			<path
   id="XMLID_321_"
   style="fill:#263238"
   d="m 45.164,134.576 -3.73,-2.25 c -0.009,0.001 -0.009,0.001 -0.009,0.001 l -0.055,-0.033 c -5.654,-2.946 -9.386,-9.617 -9.857,-19.32 -0.422,-8.694 1.842,-18.353 5.923,-27.319 l 4.149,2.469 c -4.09,8.967 -6.346,18.625 -5.924,27.32 0.463,9.507 4.048,16.095 9.503,19.132 z" />
			<path
   id="XMLID_320_"
   style="fill:#455a64"
   d="M 67.092,131.608 C 83.501,121.041 96.036,96.671 95.089,77.176 94.143,57.681 80.072,50.444 63.663,61.011 47.254,71.578 34.719,95.948 35.666,115.443 c 0.946,19.496 15.016,26.733 31.426,16.165 z" />
		</g>
		<path
   id="XMLID_319_"
   style="fill:#fafafa"
   d="m 53.341,130.249 c -9.674,0.47 -11.25,-10.408 -11.478,-15.106 -0.835,-17.195 10.687,-39.595 25.159,-48.914 3.684,-2.372 7.277,-3.706 10.391,-3.858 9.675,-0.47 11.25,10.408 11.478,15.106 0.835,17.194 -10.687,39.594 -25.159,48.914 -3.684,2.373 -7.277,3.707 -10.391,3.858 z" />
		<g
   id="g35">
			<path
   style="fill:#37474f"
   d="m 67.276,99.534 c -0.115,0 -0.23,-0.019 -0.342,-0.057 C 66.508,99.331 66.222,98.93 66.222,98.48 V 73.602 c 0,-0.582 0.471,-1.054 1.054,-1.054 0.582,0 1.054,0.472 1.054,1.054 v 21.81 L 79.931,80.511 c 0.357,-0.459 1.019,-0.542 1.479,-0.184 0.459,0.358 0.542,1.019 0.184,1.479 L 68.107,99.128 c -0.203,0.261 -0.513,0.406 -0.831,0.406 z"
   id="path29" />
			<g
   id="XMLID_315_">
				<g
   id="XMLID_317_">
					<path
   id="XMLID_318_"
   style="fill:#ba68c8"
   d="m 61.335,117.905 c -0.048,0.002 -0.098,-0.003 -0.147,-0.018 -0.235,-0.069 -0.369,-0.316 -0.299,-0.551 l 5.836,-19.675 c 0.07,-0.235 0.317,-0.37 0.55,-0.299 0.235,0.069 0.369,0.316 0.299,0.55 l -5.836,19.675 c -0.055,0.186 -0.22,0.309 -0.403,0.318 z" />
				</g>
				<path
   id="XMLID_316_"
   style="fill:#ba68c8"
   d="m 67.005,94.796 c 1.33,-0.857 2.471,-0.27 2.548,1.311 0.077,1.581 -0.94,3.557 -2.27,4.414 -1.331,0.857 -2.472,0.27 -2.549,-1.311 -0.076,-1.582 0.94,-3.558 2.271,-4.414 z" />
			</g>
		</g>
	</g>
</g>
<g
   id="Folder"
   transform="matrix(0.93846784,0,0,0.93846784,20.672452,26.464143)">
	<g
   id="Folder_16_">
		<path
   style="fill:#e0e0e0"
   d="m 111.659,101.215 c -0.23,0 -0.458,-0.061 -0.667,-0.181 -0.417,-0.241 -0.666,-0.673 -0.666,-1.154 V 45.828 c 0,-0.501 0.163,-1.058 0.458,-1.567 0.295,-0.506 0.693,-0.924 1.125,-1.179 l 16.167,-9.33 c 0.568,-0.33 1.196,-0.354 1.719,-0.056 0.41,0.234 0.695,0.606 0.832,1.063 l 1.306,4.356 c 0.068,0.224 0.201,0.386 0.372,0.454 0.171,0.067 0.375,0.04 0.578,-0.076 l 38.026,-21.937 c 0.473,-0.277 0.958,-0.331 1.358,-0.153 l 0.171,0.092 c 0.391,0.247 0.614,0.718 0.614,1.292 v 45.358 c 0,1.028 -0.697,2.235 -1.588,2.749 l -59.14,34.14 c -0.208,0.12 -0.437,0.181 -0.665,0.181 z M 129,34.59 c -0.12,0 -0.246,0.039 -0.373,0.112 l -16.164,9.328 c -0.263,0.156 -0.53,0.442 -0.729,0.782 -0.196,0.339 -0.309,0.709 -0.309,1.016 V 99.88 c 0,0.117 0.073,0.178 0.116,0.202 0.044,0.026 0.132,0.058 0.233,0.001 l 59.14,-34.14 c 0.553,-0.319 1.037,-1.159 1.037,-1.798 V 18.787 c 0,-0.22 -0.059,-0.326 -0.095,-0.358 l -0.071,-0.038 c -0.016,-10e-4 -0.143,0.01 -0.327,0.117 l -38.027,21.936 c -0.491,0.284 -1.048,0.335 -1.53,0.148 -0.489,-0.193 -0.853,-0.606 -1.02,-1.159 l -1.307,-4.357 c -0.056,-0.187 -0.162,-0.333 -0.298,-0.412 -0.089,-0.05 -0.181,-0.074 -0.276,-0.074 z"
   id="path39" />
		<g
   id="XMLID_702_">
			<path
   id="XMLID_769_"
   style="fill:#ff7f2a"
   d="m 180.647,23.647 c 0,-0.403 -0.138,-0.687 -0.361,-0.831 l 0.003,-10e-4 -0.015,-0.008 c -0.009,-0.006 -0.018,-0.011 -0.028,-0.016 l -2.449,-1.417 c 0,0 -0.001,-10e-4 -0.002,-10e-4 l -0.004,-0.002 v 0.001 c -0.237,-0.134 -0.563,-0.114 -0.924,0.094 l -37.606,21.694 -1.015,-3.381 c -0.101,-0.337 -0.301,-0.581 -0.549,-0.727 l 0.008,-0.003 -2.472,-1.427 0.001,0.008 c -0.343,-0.203 -0.782,-0.212 -1.203,0.031 l -16.162,9.329 c -0.726,0.419 -1.314,1.438 -1.314,2.276 v 53.894 c 0,0.402 0.138,0.685 0.359,0.829 l -0.004,0.003 0.025,0.015 c 0.003,0.002 0.007,0.004 0.011,0.006 l 2.447,1.411 c 0.009,0.005 0.018,0.011 0.027,0.016 l 0.02,0.011 v -0.004 c 0.235,0.118 0.548,0.095 0.895,-0.105 l 59,-34.063 c 0.726,-0.419 1.314,-1.438 1.314,-2.276 z" />
			
			<g
   style="opacity:0.4"
   id="g45">
				<path
   id="XMLID_767_"
   style="fill:#ffffff"
   d="m 137.67,39.032 c -0.34,-0.188 -0.765,-0.182 -1.177,0.055 l -16.161,9.327 c -0.358,0.213 -0.686,0.571 -0.928,0.983 l -2.464,-1.426 c 0.237,-0.413 0.564,-0.777 0.929,-0.983 L 134.03,37.66 c 0.425,-0.243 0.862,-0.23 1.202,-0.03 v -0.006 z" />
				<path
   id="XMLID_709_"
   style="fill:#ffffff"
   d="m 180.193,22.762 c -0.231,-0.097 -0.534,-0.061 -0.862,0.127 l -38.025,21.938 c -0.728,0.419 -1.511,0.109 -1.754,-0.698 l -0.291,-0.971 37.607,-21.695 c 0.206,-0.121 0.407,-0.176 0.583,-0.176 0.128,0 0.243,0.031 0.34,0.085 h 0.006 z" />
			</g>
			<path
   id="XMLID_753_"
   style="opacity:0.3;fill:#ba68c8"
   d="m 119.204,105.246 c 0.036,0.055 0.079,0.097 0.128,0.14 l -2.385,-1.372 c -0.006,-0.006 -0.006,-0.006 -0.012,-0.006 l -0.024,-0.018 c -0.091,-0.061 -0.164,-0.146 -0.225,-0.255 -0.024,-0.049 -0.049,-0.097 -0.061,-0.152 -0.043,-0.121 -0.067,-0.261 -0.067,-0.425 l -0.006,-53.895 c 0,-0.055 0,-0.103 0.006,-0.158 0.012,-0.109 0.031,-0.218 0.055,-0.327 0.012,-0.055 0.031,-0.109 0.043,-0.164 0.055,-0.164 0.121,-0.328 0.2,-0.486 0.024,-0.055 0.055,-0.109 0.085,-0.158 l 2.464,1.426 c -0.237,0.407 -0.382,0.874 -0.382,1.293 v 53.895 c 0,0.079 0.006,0.158 0.018,0.231 0.006,0.042 0.012,0.085 0.024,0.128 0.006,0.024 0.012,0.042 0.018,0.067 0.012,0.03 0.024,0.061 0.036,0.085 0.018,0.054 0.048,0.103 0.085,0.151 z" />
		</g>
	</g>
</g>
<g
   id="Files">
	
	
	
</g>
<g
   id="Device"
   transform="matrix(0.93846784,0,0,0.93846784,20.672452,26.464143)">
	<g
   id="Monitor_1_">
		<g
   id="XMLID_944_">
			<g
   id="XMLID_949_">
				<path
   id="XMLID_950_"
   style="fill:#455a64"
   d="m 187.02,391.264 41.94,-24.249 c 4.322,-2.496 6.484,-5.767 6.485,-9.038 0,-3.271 0.018,-5.834 0.018,-5.834 l -39.465,-22.399 c -2.305,-1.331 -4.174,-4.569 -4.174,-7.232 v -37.404 l -73.253,42.329 -0.002,37.404 c 0,2.662 1.869,5.9 4.174,7.23 l 32.965,19.193 c 8.647,4.992 22.666,4.991 31.312,0 z" />
			</g>
			<path
   id="XMLID_948_"
   style="opacity:0.15"
   d="m 136.157,373.997 v 5.809 l -13.425,-7.737 c -2.29,-1.326 -4.17,-4.556 -4.17,-7.231 V 327.44 l 13.956,-8.051 c 0.289,3.544 0.602,7.207 0.891,10.774 l -9.786,5.664 v 26.094 c 0,2.675 1.856,5.905 4.171,7.231 z" />
			<path
   id="XMLID_947_"
   style="fill:#37474f"
   d="m 123.622,361.931 c 0,2.663 1.869,5.9 4.175,7.231 l 27.907,16.27 c 8.646,4.992 22.666,4.994 31.313,0.004 l 41.96,-24.247 c 8.648,-4.99 8.648,-13.082 0.002,-18.074 l -27.927,-16.284 c -2.306,-1.332 -4.175,-4.569 -4.175,-7.231 v -26.098 l -73.255,42.328 z" />
			<path
   id="XMLID_946_"
   style="opacity:0.15"
   d="m 209.555,331.747 v -0.006 l -8.503,-4.909 c -2.306,-1.332 -4.175,-4.569 -4.175,-7.231 v -26.098 l -73.255,42.328 v 26.101 c 0,2.663 1.869,5.9 4.175,7.231 l 8.357,4.824 z" />
		</g>
		<path
   id="XMLID_943_"
   style="fill:#37474f"
   d="m 36.359,400.743 c 2.704,1.561 7.232,1.477 10.114,-0.187 36.014,-20.793 205.001,-118.356 241.01,-139.144 2.882,-1.664 5.217,-5.71 5.217,-9.038 v -212.2 c 0,-3.328 -2.192,-7.291 -4.895,-8.852 -2.704,-1.561 -7.232,-1.477 -10.113,0.187 L 36.686,170.653 c -2.882,1.664 -5.219,5.711 -5.219,9.039 l -0.004,212.199 c 0,3.328 2.192,7.291 4.896,8.852 z" />
		<path
   id="XMLID_942_"
   style="fill:#455a64"
   d="M 46.474,400.549 287.482,261.406 c 2.883,-1.664 5.219,-5.711 5.219,-9.039 v -212.2 c 0,-3.328 -2.336,-4.677 -5.219,-3.013 L 46.478,176.299 c -2.882,1.664 -5.219,5.711 -5.219,9.039 l -0.004,212.199 c 10e-4,3.327 2.337,4.676 5.219,3.012 z" />
		<path
   id="XMLID_939_"
   style="fill:#263238"
   d="m 48.152,377.072 0.003,-189.409 c 0,-2.046 1.437,-4.535 3.209,-5.558 L 282.587,48.607 c 1.772,-1.023 3.209,-0.194 3.209,1.853 l 0.009,189.412 c 0,2.047 -1.436,4.535 -3.209,5.559 L 51.361,378.925 c -1.772,1.023 -3.209,0.194 -3.209,-1.853 z" />
		<path
   style="fill:#fafafa"
   d="m 276.243,240.837 c 1.773,-1.024 3.21,-3.512 3.209,-5.559 L 279.443,50.422 51.363,182.105 c -1.772,1.023 -3.209,3.512 -3.209,5.558 l -0.003,184.852 z"
   id="path281" />
		<path
   style="fill:#263238"
   d="m 33.004,174.534 9.787,5.64 c -0.941,1.639 -1.518,3.495 -1.543,5.158 v 195.22 l 0.008,16.984 c 0,3.037 2.055,4.734 5.217,3.019 -3.159,1.837 -7.655,1.609 -10.114,0.187 -2.7,-1.567 -4.897,-4.871 -4.897,-8.221 V 374.887 179.692 c 0,-1.663 0.602,-3.519 1.542,-5.158 z"
   id="path283" />
	</g>
</g>
<g
   id="Window"
   transform="matrix(0.93846784,0,0,0.93846784,20.672452,26.464143)">
	<g
   id="Window_2_"
   transform="translate(9.169,-0.714)">
		<g
   id="XMLID_244_">
			<path
   style="fill:#e0e0e0"
   d="m 316.338,51.301 c -0.5,0 -1.08,0.16 -1.68,0.51 l -244.28,141.08 c -2.09,1.21 -3.78,4.14 -3.78,6.55 v 196.63 c 0,1.9 1.06,3.52 2.54,3.52 0.39,0 0.81,-0.12 1.24,-0.37 l 244.27,-141.14 c 2.09,-1.2 3.78,-4.13 3.78,-6.54 V 53.991 c 0,-1.71 -0.85,-2.69 -2.09,-2.69 z m 0.82,200.24 c 0,1.97 -1.44,4.45 -3.14,5.43 l -244.27,141.15 c -0.23,0.13 -0.43,0.19 -0.61,0.19 -0.67,0 -1.26,-1.05 -1.26,-2.24 v -196.63 c 0,-1.97 1.44,-4.46 3.14,-5.44 l 244.27,-141.09 c 0.5,-0.28 0.85,-0.34 1.05,-0.34 0.71,0 0.82,0.89 0.82,1.42 z"
   id="path3723"
   sodipodi:nodetypes="sccsssccssssccsssccsss" />
			<path
   style="fill:#fafafa"
   d="m 317.158,53.991 v 197.55 c 0,1.97 -1.44,4.45 -3.14,5.43 l -244.27,141.15 c -0.23,0.13 -0.43,0.19 -0.61,0.19 -0.67,0 -1.26,-1.05 -1.26,-2.24 v -196.63 c 0,-1.97 1.44,-4.46 3.14,-5.44 l 244.27,-141.09 c 0.5,-0.28 0.85,-0.34 1.05,-0.34 0.71,0 0.82,0.89 0.82,1.42 z"
   id="path289" /><path
   style="fill:#333333;fill-opacity:1;stroke-width:0.377953;stroke-linecap:round;stroke-linejoin:round;stroke-miterlimit:1.4;stroke-dashoffset:1.13386;stroke-opacity:0.120567;paint-order:stroke fill markers"
   d="M 104.91949,189.439 V 377.79736 L 69.748,398.121 c 0,0 -0.134494,0.16441 -0.61,0.19 -0.78091,0.042 -1.30864,-1.4274 -1.26,-2.24 l 0.01301,-185.02109 z"
   id="path3726"
   sodipodi:nodetypes="cccsccc" />
			<path
   id="XMLID_246_"
   style="fill:#ebebeb"
   d="m 63.362,396.609 c 0.409,0.217 3.346,1.893 4.633,2.626 -0.868,-0.618 -1.326,-1.682 -1.39,-3.172 v -184.27 l -4.835,-2.829 v 184.367 c 0,1.461 0.63,2.768 1.592,3.278 z" />
			
		<path
   id="XMLID_245_"
   style="opacity:0.1"
   d="m 63.362,396.609 c 0.409,0.217 3.346,1.893 4.633,2.626 -0.868,-0.618 -1.326,-1.682 -1.39,-3.172 v -184.27 l -4.835,-2.829 v 184.367 c 0,1.461 0.63,2.768 1.592,3.278 z" /></g>
		<g
   id="g349">
			<g
   id="XMLID_239_">
				<path
   id="XMLID_243_"
   style="fill:#ff7f2a"
   d="m 318.43,53.964 c -0.015,-2.386 -1.698,-3.351 -3.775,-2.152 L 70.379,192.893 c -2.086,1.205 -3.777,4.134 -3.777,6.543 L 66.606,211.792 318.43,66.363 Z" />
				<g
   id="g301">
					<path
   style="fill:#00ff00"
   d="m 294.636,69.218 c 1.122,-0.648 2.031,-0.123 2.031,1.173 0,1.295 -0.909,2.87 -2.031,3.518 -1.122,0.648 -2.031,0.123 -2.031,-1.173 0,-1.295 0.909,-2.87 2.031,-3.518 z"
   id="path295" />
					<path
   style="fill:#ffff00"
   d="m 302.76,64.528 c 1.122,-0.648 2.031,-0.123 2.031,1.173 0,1.296 -0.909,2.87 -2.031,3.518 -1.122,0.648 -2.031,0.123 -2.031,-1.173 0,-1.295 0.909,-2.87 2.031,-3.518 z"
   id="path297" />
					<path
   style="fill:#ff2a2a"
   d="m 310.884,59.838 c 1.122,-0.648 2.031,-0.123 2.031,1.173 0,1.296 -0.909,2.87 -2.031,3.518 -1.122,0.648 -2.031,0.123 -2.031,-1.173 0,-1.295 0.909,-2.87 2.031,-3.518 z"
   id="path299" />
				</g>
				<g
   id="g305"
   style="fill:#d45500;fill-opacity:1">
					<path
   id="XMLID_242_"
   style="fill:#d45500;fill-opacity:1"
   d="m 61.77,208.976 v -12.282 c 0,-1.223 0.451,-2.578 1.152,-3.778 l 4.812,2.768 c -0.701,1.188 -1.129,2.531 -1.129,3.754 v 12.354 z" />
					<path
   id="XMLID_241_"
   style="opacity:0.15;fill:#d45500;fill-opacity:1"
   d="m 61.77,208.976 v -12.282 c 0,-1.223 0.451,-2.578 1.152,-3.778 l 4.812,2.768 c -0.701,1.188 -1.129,2.531 -1.129,3.754 v 12.354 z" />
				</g>
				<g
   id="XMLID_240_"
   style="fill:#ff9955">
					<path
   style="fill:#ff9955"
   d="M 314.653,51.811 70.383,192.892 c -1.034,0.606 -1.984,1.628 -2.661,2.804 l -4.8,-2.78 c 0.678,-1.164 1.604,-2.174 2.626,-2.756 L 309.83,49.078 c 1.081,-0.63 2.043,-0.641 2.744,-0.226 0.677,0.416 3.814,2.198 4.61,2.626 -0.666,-0.321 -1.556,-0.226 -2.531,0.333 z"
   id="path307" />
					<path
   style="opacity:0.3;fill:#ff9955"
   d="M 314.653,51.811 70.383,192.892 c -1.034,0.606 -1.984,1.628 -2.661,2.804 l -4.8,-2.78 c 0.678,-1.164 1.604,-2.174 2.626,-2.756 L 309.83,49.078 c 1.081,-0.63 2.043,-0.641 2.744,-0.226 0.677,0.416 3.814,2.198 4.61,2.626 -0.666,-0.321 -1.556,-0.226 -2.531,0.333 z"
   id="path309" />
				</g>
			</g>
			<g
   id="XMLID_208_">
				
				
				
				
			</g>
			<g
   id="XMLID_205_">
				<path
   id="XMLID_207_"
   style="fill:#f5f5f5"
   d="m 209.732,121.468 v 0.82 c -0.001,1.312 0.921,1.844 2.057,1.188 L 270.411,89.63 c 1.137,-0.656 2.058,-2.252 2.059,-3.564 v -0.821 c 10e-4,-1.312 -0.92,-1.844 -2.057,-1.188 l -58.622,33.847 c -1.137,0.656 -2.059,2.251 -2.059,3.564 z" />
				<path
   id="XMLID_206_"
   style="fill:#455a64"
   d="m 272.47,86.066 v -0.821 c 0,-1.312 -0.921,-1.844 -2.057,-1.188 l -7.595,4.385 v 0 l -10e-4,5.573 v 0 l 7.594,-4.385 c 1.137,-0.656 2.058,-2.252 2.059,-3.564 z" />
			</g>
		</g>
		
	</g>
</g>
<g
   id="Puzzle_Pieces"
   transform="matrix(0.93846784,0,0,0.93846784,20.672452,26.464143)">
	<g
   id="Puzzle_Piece_2_">
		<path
   style="fill:#d45500"
   d="m 433.057,399.323 c 0,0 -1.706,-1.005 -2.529,-1.49 -7.699,-4.575 -13.787,-8.19 -17.572,-8.135 -2.815,0.035 -4.209,1.68 -4.547,3.065 -0.26,1.11 -1.03,1.755 -1.637,2.105 -0.408,0.235 -0.901,0.395 -1.427,0.518 0.078,-0.167 0.128,-0.343 0.137,-0.531 10e-4,-0.022 10e-4,-0.044 10e-4,-0.066 -0.022,-1.623 -10e-4,-9.405 -10e-4,-9.405 0.087,-2.39 -6.4,-5.995 -15.086,-10.4 l -2.208,1.225 c -7.604,4.4 -12.194,7.06 -15.736,7.015 -2.33,-0.035 -3.49,-1.465 -3.785,-2.685 -0.294,-1.23 -1.178,-1.96 -1.862,-2.355 -2.425,-1.4 -6.946,-1.07 -10.072,0.735 -1.856,1.071 -2.81,2.421 -2.777,3.635 0.023,0.837 0.003,8.207 -0.001,9.403 -0.003,0.863 0.489,1.661 1.505,2.248 0.223,0.129 0.515,0.269 0.87,0.406 -1.635,0.978 -3.446,2.022 -5.365,3.128 l -1.602,1.015 v 9.471 c 0,0 13.103,9.135 17.225,9.085 2.823,-0.04 4.209,-1.68 4.538,-3.07 0.269,-1.105 1.039,-1.75 1.637,-2.095 0.409,-0.236 0.903,-0.397 1.43,-0.52 -0.076,0.166 -0.124,0.342 -0.131,0.529 v 9.471 c -0.104,2.44 8.115,6.935 17.017,11.425 l 0.511,-0.335 40.902,-23.605 0.563,-0.315 v -9.472 z"
   id="path363" />
		<g
   style="opacity:0.2"
   id="g369">
			<path
   d="m 381.737,403.403 c -2.82,-1.63 -6.84,-1.96 -8.97,-0.73 -0.6,0.35 -1.37,0.99 -1.64,2.1 -0.26,1.11 -1.2,2.38 -3,2.86 v 9.46 c 1.79,-0.49 2.74,-1.75 3,-2.85 0.27,-1.11 1.04,-1.75 1.64,-2.1 0.41,-0.23 0.9,-0.4 1.43,-0.52 0.58,-1.27 3.05,-1.91 5.18,-2.09 1.92,-0.15 3.03,-0.6 3.63,-0.94 2.13,-1.23 1.55,-3.56 -1.27,-5.19 z"
   id="path365" />
			<path
   d="m 405.487,385.403 c -0.1,1.62 -2.92,2.41 -5.32,2.6 -1.92,0.16 -3.03,0.6 -3.64,0.95 -2.12,1.23 -1.55,3.55 1.27,5.18 2.33,1.34 5.47,1.8 7.69,1.24 v -0.03 c -0.05,0.02 -0.09,0.03 -0.14,0.04 0.08,-0.16 0.13,-0.34 0.14,-0.53 v -0.14 c -0.02,-1.74 0,-9.07 0,-9.31 z"
   id="path367" />
		</g>
		<polygon
   style="opacity:0.2"
   points="433.057,408.794 391.081,433.049 391.081,423.578 433.057,399.323 "
   id="polygon371" />
		<g
   id="g377">
			<path
   style="fill:#fafafa"
   d="m 391.048,423.002 c -4.789,-2.416 -16.588,-8.412 -16.484,-10.827 0.044,-1.203 2.545,-1.956 4.85,-2.148 2.014,-0.157 3.203,-0.634 3.846,-1.006 0.99,-0.571 1.536,-1.409 1.536,-2.359 0,-1.315 -1.023,-2.66 -2.809,-3.69 -1.696,-0.979 -3.84,-1.542 -5.881,-1.542 -1.431,0 -2.673,0.28 -3.592,0.812 -0.684,0.396 -1.563,1.135 -1.873,2.41 -0.288,1.219 -1.523,2.651 -4.059,2.688 0,0 -10e-4,0 -0.002,0 -3.478,0 -8.126,-3.111 -14.011,-7.051 -0.74,-0.495 -1.501,-1.005 -2.285,-1.524 l 0.95,-0.602 c 8.906,-5.131 13.542,-7.91 13.447,-10.184 -0.081,-2.101 -3.925,-2.572 -5.102,-2.667 -2.031,-0.162 -3.226,-0.639 -3.869,-1.011 -0.572,-0.33 -1.255,-0.912 -1.255,-1.807 0,-1.054 0.945,-2.228 2.528,-3.143 1.689,-0.976 3.855,-1.535 5.942,-1.535 1.446,0 2.734,0.285 3.629,0.801 0.603,0.348 1.374,0.983 1.626,2.038 0.337,1.392 1.654,3.03 4.263,3.069 0.001,0 0.001,0 0.002,0 3.753,0 8.343,-2.656 15.947,-7.057 l 2.014,-1.117 c 5.596,2.838 14.661,7.469 14.575,9.814 -0.056,1.156 -2.485,1.953 -4.857,2.141 -2.008,0.162 -3.2,0.642 -3.849,1.015 -0.988,0.571 -1.532,1.408 -1.531,2.356 0,1.313 1.022,2.656 2.805,3.685 1.701,0.982 3.851,1.546 5.897,1.546 0,0 0,0 10e-4,0 1.425,0 2.661,-0.278 3.573,-0.806 0.689,-0.397 1.573,-1.14 1.874,-2.423 0.296,-1.214 1.539,-2.648 4.065,-2.68 10e-4,0 10e-4,0 10e-4,0 3.739,0 9.728,3.559 17.309,8.064 l 1.784,1.051 -40.714,23.497 z"
   id="path373" />
			<path
   style="fill:#e0e0e0"
   d="m 390.418,376.115 c 4.595,2.333 14.138,7.242 14.066,9.22 -0.031,0.642 -1.805,1.467 -4.4,1.671 -2.101,0.17 -3.365,0.682 -4.056,1.081 -1.149,0.663 -1.782,1.654 -1.782,2.788 0,1.497 1.113,2.998 3.055,4.119 1.775,1.025 4.015,1.612 6.147,1.612 1.514,0 2.836,-0.302 3.825,-0.872 1.111,-0.641 1.841,-1.59 2.108,-2.734 0.255,-1.045 1.347,-2.274 3.59,-2.302 h 0.071 c 3.52,0 9.755,3.705 16.978,7.997 l 1.043,0.614 -39.971,23.068 -0.025,0.014 -0.024,0.016 -0.028,0.018 c -3.635,-1.838 -8.068,-4.143 -11.288,-6.174 -4.58,-2.889 -4.67,-3.945 -4.666,-4.06 0.024,-0.63 1.794,-1.45 4.387,-1.665 2.107,-0.165 3.371,-0.673 4.059,-1.071 1.152,-0.665 1.786,-1.657 1.786,-2.793 0,-1.499 -1.115,-3.002 -3.059,-4.124 -1.77,-1.022 -4.004,-1.608 -6.13,-1.608 -1.519,0 -2.847,0.304 -3.842,0.878 -0.767,0.443 -1.756,1.275 -2.11,2.731 -0.246,1.041 -1.332,2.269 -3.577,2.3 h -0.062 c -3.259,0 -7.854,-3.076 -13.672,-6.969 -0.536,-0.358 -1.083,-0.724 -1.641,-1.097 l 0.284,-0.18 c 9.324,-5.371 13.801,-8.066 13.695,-10.633 -0.095,-2.445 -3.921,-3.016 -5.562,-3.148 -1.94,-0.155 -3.06,-0.599 -3.658,-0.944 -0.667,-0.385 -1.005,-0.848 -1.005,-1.375 0,-0.859 0.873,-1.897 2.278,-2.708 1.592,-0.919 3.721,-1.468 5.693,-1.468 1.36,0 2.559,0.26 3.379,0.733 0.517,0.298 1.178,0.84 1.39,1.724 0.378,1.564 1.846,3.407 4.744,3.45 l 0.102,0.001 c 3.792,0 8.427,-2.682 16.132,-7.141 l 1.746,-0.969 m -0.021,-1.132 -2.208,1.225 c -7.541,4.363 -12.117,7.016 -15.647,7.016 -0.03,0 -0.06,0 -0.089,-10e-4 -2.33,-0.035 -3.49,-1.465 -3.784,-2.685 -0.294,-1.23 -1.178,-1.96 -1.862,-2.355 -1.012,-0.585 -2.39,-0.867 -3.879,-0.867 -2.078,0 -4.372,0.551 -6.193,1.602 -3.135,1.81 -3.698,4.415 -1.273,5.815 0.684,0.395 1.948,0.905 4.079,1.075 2.113,0.17 4.59,0.84 4.642,2.19 0.086,2.08 -5.785,5.46 -13.216,9.74 l -1.602,1.015 c 7.532,4.975 13.036,9.086 17.151,9.086 0.025,0 0.049,0 0.074,-10e-4 2.823,-0.04 4.209,-1.68 4.538,-3.07 0.269,-1.105 1.039,-1.75 1.637,-2.095 0.869,-0.502 2.053,-0.744 3.342,-0.744 1.869,0 3.959,0.509 5.63,1.474 2.823,1.63 3.403,3.955 1.273,5.185 -0.597,0.345 -1.715,0.79 -3.637,0.94 -2.408,0.2 -5.248,1 -5.309,2.625 -0.104,2.44 8.115,6.935 17.018,11.425 l 0.511,-0.335 40.902,-23.605 0.563,-0.315 c -0.857,-0.505 -1.706,-1.005 -2.529,-1.49 -7.641,-4.541 -13.695,-8.136 -17.486,-8.136 -0.029,0 -0.057,0 -0.086,10e-4 -2.815,0.035 -4.209,1.68 -4.547,3.065 -0.26,1.11 -1.03,1.755 -1.637,2.105 -0.863,0.498 -2.041,0.738 -3.325,0.738 -1.873,0 -3.972,-0.511 -5.647,-1.478 -2.823,-1.63 -3.395,-3.95 -1.273,-5.175 0.606,-0.35 1.723,-0.795 3.637,-0.95 2.408,-0.19 5.24,-0.995 5.318,-2.62 0.086,-2.39 -6.4,-5.995 -15.086,-10.4 z"
   id="path375" />
		</g>
	</g>
	<g
   id="Puzzle_Piece_1_">
		<path
   style="fill:#ff6600"
   d="m 480.555,358.598 c 0.634,-0.178 1.093,-0.385 1.406,-0.566 0.856,-0.494 1.266,-1.166 1.274,-1.899 l 0.007,-10e-4 v -9.393 l -0.008,0.001 c 0.005,-1.083 -0.875,-2.298 -2.557,-3.269 -2.827,-1.632 -6.843,-1.964 -8.962,-0.734 -0.601,0.347 -1.378,0.991 -1.632,2.098 -0.337,1.392 -1.727,3.029 -4.545,3.07 -4.222,0.056 -9.913,-3.697 -17.775,-8.889 l -40.497,23.42 v 9.381 c 6.981,4.617 14.225,9.386 18.197,9.333 2.325,-0.031 3.491,-1.464 3.785,-2.681 0.295,-1.23 1.179,-1.959 1.861,-2.353 0.958,-0.556 2.251,-0.829 3.653,-0.857 -0.604,0.332 -1.005,0.756 -1.026,1.286 v 9.381 c -0.09,2.228 6.234,5.626 14.553,9.829 1.688,-0.972 3.318,-1.885 4.906,-2.768 5.989,-3.329 10.699,-5.957 10.638,-7.685 v -9.381 c -0.022,-0.529 -0.427,-0.953 -1.034,-1.284 1.4,0.028 2.692,0.302 3.654,0.857 0.682,0.394 1.553,1.123 1.858,2.353 0.291,1.221 1.456,2.654 3.792,2.683 3.022,0.038 6.468,-2.012 12.173,-5.412 1.398,-0.833 2.934,-1.746 4.615,-2.723 v -9.381 c -3.208,-1.624 -6.009,-3.092 -8.336,-4.416 z"
   id="path380" />
		<path
   style="opacity:0.2"
   d="m 442.46,373.285 c -0.68,0.39 -1.95,0.9 -4.08,1.07 -1.28,0.1 -2.7,0.39 -3.62,0.9 -1.4,0.03 -2.69,0.3 -3.65,0.86 -0.68,0.39 -1.57,1.12 -1.86,2.35 -0.21,0.88 -0.89,1.86 -2.12,2.36 v -9.37 c 1.24,-0.49 1.91,-1.49 2.12,-2.37 0.29,-1.23 1.18,-1.96 1.86,-2.35 2.42,-1.41 6.94,-1.07 10.07,0.73 3.13,1.811 3.7,4.42 1.28,5.82 z"
   id="path382" />
		<path
   style="opacity:0.2"
   d="m 463.83,375.956 v 9.34 c 0.07,1.73 -4.64,4.36 -10.63,7.69 -1.59,0.88 -3.22,1.8 -4.91,2.77 v -9.38 c 1.69,-0.98 3.32,-1.89 4.91,-2.77 5.95,-3.311 10.63,-5.921 10.63,-7.65 z"
   id="path384" />
		<path
   style="opacity:0.2"
   d="m 473.01,352.216 c 0.07,-1.62 2.91,-2.43 5.32,-2.62 1.91,-0.15 3.03,-0.6 3.63,-0.94 0.81,-0.47 1.23,-1.09 1.28,-1.78 v 9.26 c -0.01,0.73 -0.42,1.4 -1.28,1.9 -0.31,0.18 -0.77,0.38 -1.4,0.56 0.29,0.17 0.59,0.33 0.89,0.5 -5.4,-2.991 -8.5,-5.27 -8.44,-6.88 z"
   id="path386" />
		<path
   style="opacity:0.2"
   d="m 488.89,363.016 v 9.38 c -1.68,0.98 -3.21,1.89 -4.61,2.72 -5.71,3.4 -9.15,5.45 -12.18,5.41 -0.3,-0.01 -0.59,-0.03 -0.85,-0.09 v -9.38 c 0.26,0.06 0.55,0.08 0.85,0.09 3.03,0.04 6.47,-2.01 12.18,-5.41 1.4,-0.831 2.93,-1.751 4.61,-2.72 z"
   id="path388" />
		<g
   id="g394">
			<path
   style="fill:#fafafa"
   d="m 448.274,385.804 c -5.718,-2.889 -14.121,-7.164 -14.037,-9.24 0.031,-0.8 1.789,-1.518 4.18,-1.71 2.223,-0.176 3.56,-0.715 4.291,-1.136 1.129,-0.655 1.749,-1.605 1.748,-2.676 -0.001,-1.438 -1.104,-2.899 -3.026,-4.008 -1.839,-1.062 -4.186,-1.67 -6.443,-1.67 -1.643,0 -3.07,0.323 -4.127,0.936 -0.771,0.444 -1.761,1.268 -2.096,2.669 -0.252,1.042 -1.269,2.271 -3.306,2.297 0,0 0,0 -0.001,0 -3.794,0 -10.855,-4.584 -17.24,-8.804 l 39.529,-22.86 c 7.754,5.12 13.376,8.802 17.7,8.803 l 0.1,-10e-4 c 3.103,-0.045 4.646,-1.889 5.024,-3.453 0.215,-0.931 0.878,-1.482 1.396,-1.782 0.751,-0.436 1.844,-0.676 3.077,-0.676 1.841,0 3.854,0.527 5.385,1.41 1.449,0.838 2.314,1.895 2.314,2.829 -0.001,0.737 -0.561,1.215 -1.032,1.485 -0.557,0.322 -1.604,0.735 -3.424,0.877 -2.737,0.224 -5.691,1.156 -5.777,3.1 -0.083,2.22 3.81,4.983 15.337,10.85 -1.375,0.804 -2.648,1.563 -3.825,2.263 -5.592,3.331 -8.967,5.341 -11.834,5.342 -2.124,-0.026 -3.141,-1.255 -3.39,-2.3 -0.351,-1.409 -1.332,-2.229 -2.095,-2.67 -1.063,-0.613 -2.491,-0.938 -4.134,-0.938 -2.255,0 -4.6,0.609 -6.436,1.672 -1.926,1.109 -3.031,2.572 -3.032,4.012 0,1.072 0.623,2.022 1.755,2.675 0.719,0.416 2.045,0.951 4.281,1.138 2.36,0.185 4.163,0.917 4.196,1.703 0.051,1.429 -5.252,4.377 -10.381,7.227 -1.515,0.843 -3.069,1.713 -4.677,2.636 z"
   id="path390" />
			<path
   style="fill:#e0e0e0"
   d="m 447.729,340.19 c 7.694,5.08 13.293,8.714 17.716,8.714 l 0.108,-10e-4 c 3.387,-0.048 5.081,-2.096 5.505,-3.845 0.139,-0.603 0.529,-1.093 1.16,-1.457 0.676,-0.392 1.679,-0.608 2.826,-0.608 1.758,0 3.677,0.502 5.134,1.344 1.522,0.879 2.065,1.814 2.064,2.396 0,0.4 -0.263,0.754 -0.781,1.053 -0.419,0.242 -1.394,0.669 -3.217,0.811 -1.431,0.117 -6.108,0.721 -6.235,3.583 -0.09,2.424 3.548,5.132 14.797,10.895 -1.079,0.634 -2.092,1.237 -3.041,1.803 -5.517,3.287 -8.847,5.271 -11.578,5.271 h -0.071 c -2.268,-0.028 -2.757,-1.6 -2.835,-1.924 -0.392,-1.576 -1.483,-2.489 -2.329,-2.978 -1.138,-0.657 -2.654,-1.004 -4.384,-1.004 -2.339,0 -4.776,0.634 -6.683,1.738 -2.086,1.202 -3.283,2.822 -3.284,4.445 -10e-4,1.258 0.711,2.362 2.004,3.109 0.766,0.442 2.166,1.009 4.497,1.203 2.389,0.186 3.719,0.907 3.732,1.215 -0.067,1.189 -5.88,4.42 -10.124,6.779 -1.303,0.724 -2.833,1.579 -4.45,2.506 -4.722,-2.388 -13.594,-6.93 -13.524,-8.654 0.012,-0.317 1.337,-1.039 3.72,-1.23 2.316,-0.184 3.726,-0.755 4.503,-1.203 1.289,-0.748 1.998,-1.852 1.997,-3.109 -0.002,-1.621 -1.196,-3.239 -3.277,-4.44 -1.912,-1.104 -4.351,-1.737 -6.692,-1.737 -1.731,0 -3.245,0.347 -4.376,1.003 -0.857,0.494 -1.957,1.413 -2.333,2.984 -0.076,0.315 -0.569,1.886 -2.826,1.916 h -0.053 c -3.463,0 -10.089,-4.225 -16.231,-8.276 l 38.561,-22.302 m 0.035,-1.175 -40.497,23.42 c 6.943,4.592 14.145,9.333 18.131,9.333 0.022,0 0.045,0 0.067,0 2.325,-0.031 3.491,-1.464 3.785,-2.681 0.295,-1.23 1.179,-1.959 1.861,-2.353 1.01,-0.586 2.387,-0.87 3.877,-0.87 2.077,0 4.371,0.552 6.193,1.603 3.127,1.806 3.697,4.415 1.278,5.818 -0.682,0.393 -1.948,0.902 -4.081,1.071 -2.109,0.169 -4.587,0.845 -4.64,2.188 -0.09,2.228 6.234,5.626 14.553,9.829 1.688,-0.972 3.318,-1.885 4.906,-2.768 5.989,-3.329 10.699,-5.957 10.638,-7.685 -0.057,-1.339 -2.544,-2.015 -4.654,-2.18 -2.132,-0.177 -3.392,-0.678 -4.074,-1.072 -2.43,-1.403 -1.853,-4.017 1.279,-5.822 1.819,-1.053 4.109,-1.604 6.184,-1.604 1.49,0 2.869,0.284 3.884,0.87 0.683,0.394 1.553,1.123 1.858,2.353 0.291,1.221 1.456,2.654 3.792,2.683 0.028,0 0.055,10e-4 0.083,10e-4 3.002,0 6.437,-2.044 12.09,-5.412 1.398,-0.833 2.934,-1.746 4.615,-2.723 -9.879,-4.997 -15.966,-8.551 -15.883,-10.797 0.072,-1.625 2.91,-2.426 5.317,-2.624 1.912,-0.149 3.034,-0.595 3.635,-0.941 2.126,-1.226 1.544,-3.548 -1.283,-5.181 -1.675,-0.967 -3.766,-1.478 -5.634,-1.478 -1.285,0 -2.464,0.242 -3.328,0.743 -0.601,0.347 -1.378,0.991 -1.633,2.098 -0.337,1.392 -1.727,3.029 -4.544,3.069 -0.031,0 -0.063,10e-4 -0.094,10e-4 -4.212,10e-4 -9.877,-3.735 -17.681,-8.889 z"
   id="path392" />
		</g>
		<path
   style="opacity:0.3"
   d="m 471.25,371.056 v 9.38 c -1.77,-0.31 -2.69,-1.53 -2.94,-2.59 -0.3,-1.23 -1.17,-1.96 -1.86,-2.35 -0.96,-0.56 -2.25,-0.83 -3.65,-0.86 -0.93,-0.51 -2.35,-0.8 -3.62,-0.9 -2.13,-0.17 -3.39,-0.67 -4.07,-1.07 -2.43,-1.4 -1.86,-4.02 1.28,-5.82 3.12,-1.81 7.63,-2.14 10.06,-0.73 0.69,0.39 1.56,1.12 1.86,2.35 0.25,1.06 1.17,2.28 2.94,2.59 z"
   id="path396" />
	</g>
</g>

<g
   id="Check_Box_1_"
   transform="matrix(0.93846784,0,0,0.93846784,20.672452,26.464143)">
	<g
   id="Check_Box">
		<g
   id="Box_1_">
			<g
   id="XMLID_710_">
				<g
   id="XMLID_717_">
					<path
   style="fill:#fafafa"
   d="m 145.121,444.068 c -0.655,0 -1.266,-0.144 -1.72,-0.406 l -1.54,-0.889 c -0.933,-0.539 -1.721,-1.903 -1.721,-2.98 v -46.254 c 0,-1.077 0.788,-2.441 1.721,-2.979 l 38.902,-22.427 c 0.454,-0.262 1.065,-0.406 1.72,-0.406 0.655,0 1.266,0.144 1.72,0.406 l 1.54,0.889 c 0.932,0.539 1.72,1.903 1.72,2.98 l 0.001,46.254 c 0,1.077 -0.788,2.441 -1.72,2.979 l -38.902,22.427 c -0.455,0.262 -1.065,0.406 -1.721,0.406 z"
   id="path444" />
					<path
   style="fill:#ff9955"
   d="m 182.484,368.068 c 0.588,0 1.152,0.132 1.549,0.361 l 1.54,0.889 c 0.84,0.485 1.549,1.714 1.549,2.684 v 46.255 c 0,0.97 -0.709,2.199 -1.549,2.683 l -38.903,22.427 c -0.397,0.229 -0.962,0.361 -1.549,0.361 -0.588,0 -1.152,-0.131 -1.549,-0.361 l -1.54,-0.889 c -0.84,-0.485 -1.55,-1.714 -1.55,-2.684 v -46.255 c 0,-0.97 0.71,-2.198 1.549,-2.683 l 38.903,-22.427 c 0.397,-0.23 0.962,-0.361 1.55,-0.361 m 0,-0.684 c -0.684,0 -1.369,0.151 -1.891,0.452 l -38.902,22.427 c -1.045,0.603 -1.891,2.069 -1.891,3.275 v 46.255 c 0,1.206 0.847,2.673 1.891,3.276 l 1.54,0.889 c 0.522,0.301 1.207,0.452 1.891,0.452 0.684,0 1.369,-0.151 1.891,-0.452 l 38.902,-22.427 c 1.044,-0.603 1.891,-2.069 1.891,-3.275 v -46.255 c 0,-1.206 -0.846,-2.672 -1.891,-3.276 l -1.54,-0.889 c -0.522,-0.301 -1.207,-0.452 -1.891,-0.452 z"
   id="path446" />
				</g>
				<path
   id="XMLID_714_"
   style="fill:#ff6600"
   d="m 139.799,439.793 c 0,1.206 0.847,2.672 1.891,3.275 l 1.54,0.889 c 0.944,0.545 2.413,0.592 3.459,0.152 -0.89,0.336 -1.568,-0.166 -1.568,-1.244 V 396.61 c 0,-0.603 0.212,-1.271 0.554,-1.864 l -5.322,-3.073 c -0.342,0.593 -0.554,1.261 -0.554,1.864 z" />
				<path
   id="XMLID_713_"
   style="fill:#d45500"
   d="m 187.744,371.463 c -0.221,-0.803 -0.953,-1.059 -1.826,-0.556 l -38.906,22.43 c -0.52,0.3 -0.997,0.812 -1.332,1.412 l -5.32,-3.07 c 0.344,-0.6 0.812,-1.112 1.332,-1.412 l 38.898,-22.43 c 1.05,-0.6 2.743,-0.6 3.785,0 l 1.544,0.891 c 0.89,0.512 1.639,1.659 1.825,2.735 z" />
				
			</g>
		</g>
		<path
   id="Check_2_"
   style="fill:#455a64"
   d="m 162.839,421.216 c -2.549,-4.928 -7.445,-7.872 -7.445,-7.872 l -2.776,7.121 c 0,0 7.062,1.167 9.666,8.564 l 3.093,-1.786 c 0,0 1.313,-17.817 13.794,-36.761 l -6.111,-7.659 c 0,0.001 -9.887,19.555 -10.221,38.393 z" />
	</g>
</g>
<g
   id="Character"
   transform="matrix(0.93846784,0,0,0.93846784,29.813598,3.8963381)">
	<g
   id="Character_4_">
		<g
   id="Bottom_2_">
			<g
   id="g461">
				<path
   style="fill:#ffbda7"
   d="m 256.701,427.502 c 0.079,4.125 0.401,10.125 0,11.836 -0.401,1.711 -7.275,3.377 -12.65,3.629 -5.375,0.252 -11.844,-0.584 -12.232,3.188 -0.393,3.815 2.977,6.34 5.448,7.483 4.194,1.94 8.87,1.518 12.981,0.914 4.112,-0.603 6.306,-0.164 10.649,0.896 4.343,1.06 6.795,0.408 8.653,-0.521 2.751,-1.376 2.023,-6.081 1.047,-9.141 -0.975,-3.06 -0.863,-5.86 -0.498,-10.107 0.365,-4.247 1.571,-10.446 1.571,-10.446 z"
   id="path457" />
				<path
   style="fill:#455a64"
   d="m 270.598,445.787 c 0,0 0.007,1.299 -2.816,1.892 -2.822,0.593 -7.493,0.439 -10.769,0.65 -4.911,0.316 -8.637,0.88 -14.27,0 -4.938,-0.771 -4.731,-4.689 -0.307,-5.313 v -0.001 c -4.977,0.084 -10.266,-0.259 -10.617,3.141 -0.393,3.815 2.977,6.34 5.448,7.483 4.194,1.94 8.87,1.518 12.982,0.914 4.112,-0.603 6.306,-0.164 10.65,0.896 4.343,1.06 6.795,0.408 8.653,-0.521 2.75,-1.376 2.021,-6.081 1.046,-9.141 z"
   id="path459" />
			</g>
			<g
   id="g469">
				<path
   style="fill:#ffbda7"
   d="m 307.765,417.268 c 2.302,3.351 6.112,9.672 6.637,11.248 0.526,1.576 1.006,7.462 0,9.205 -1.44,1.055 -3.704,1.657 -5.637,2.613 -2.788,1.379 -3.388,3.664 -1.565,5.412 2.543,2.44 6.647,2.728 9.128,2.581 3.603,-0.55 3.851,-4.588 4.371,-8.164 0.52,-3.576 -0.068,-10.61 2.643,-14.931 2.711,-4.321 7.517,-4.727 8.143,-3.287 -0.296,-2.172 -1.493,-2.238 -4.093,-3.707 -2.6,-1.469 -4.863,-1.424 -6.302,-4.836 -1.703,-4.038 -3.251,-8.858 -3.251,-8.858 z"
   id="path463" />
				<path
   style="fill:#263238"
   d="m 312.833,448.395 c 2.592,0.434 4.409,0.433 9.007,-1.823 3.968,-1.947 4.975,-2.768 5.582,-3.849 0.958,-1.707 -0.079,-5.921 0.756,-9.555 0.835,-3.633 1.719,-5.214 2.619,-7.42 0.9,-2.206 0.832,-3.16 0.689,-3.801 -0.308,-1.38 -3.117,-1.551 -5.785,0 -2.668,1.551 -4.397,4.503 -5.279,11.542 -0.883,7.037 0.477,14.737 -7.589,14.906 z"
   id="path465" />
				<path
   style="fill:#455a64"
   d="m 331.485,421.946 c -0.296,-2.172 -1.047,-2.496 -3.646,-3.965 -0.966,-0.546 -1.916,-0.938 -2.801,-1.389 v 0 c -2.516,-0.474 -6.479,1.51 -6.683,6.79 -0.204,5.281 0.704,11.979 -0.885,14.462 -1.354,2.115 -3.58,1.972 -3.067,-0.122 -3.566,1.308 -4.792,1.326 -6.807,2.428 -2.324,1.272 -3.105,4.595 -0.957,5.924 2.997,1.854 6.087,2.805 9.69,2.255 3.603,-0.55 3.851,-4.589 4.371,-8.164 0.52,-3.576 -0.068,-10.61 2.643,-14.931 2.71,-4.321 7.516,-4.727 8.142,-3.288 z"
   id="path467" />
			</g>
			<g
   id="g486">
				<path
   id="XMLID_100_"
   style="fill:#455a64"
   d="m 308.447,419.368 c 0,0 -13.1,-19.242 -20.1,-31.707 -5.174,-9.215 -5.645,-11.001 -6.913,-17.031 -2.725,-12.957 -3.363,-15.994 -3.363,-15.994 l -4.065,26.166 c 0.649,2.842 1.964,8.466 2.015,11.774 0.063,4.396 -0.336,10.582 -1.575,19.289 -1.971,13.847 -3.981,21.377 -3.981,21.377 -1.017,0.71 -3.973,0.844 -6.539,0.762 -3.557,-0.112 -7.35,-1.373 -7.35,-1.373 0,0 -2.135,-30.836 -2.633,-39.318 -0.598,-10.182 -0.808,-14.178 -1.126,-19.77 -0.507,-8.9 -1.717,-21.791 -1.372,-38.146 0.688,-32.537 7.934,-47.387 7.934,-47.387 l 36.727,-5.101 c 3.049,10.96 9.384,12.234 10.048,27.198 0.151,3.398 -1.645,10.138 -1.705,15.409 -0.195,17.095 -1.724,43.949 -1.724,43.949 4.032,3.717 6.986,7.078 9.772,15.701 1.692,5.235 5.443,18.496 7.024,23.874 -4.627,-0.001 -11.129,8.229 -11.074,10.328 z" />
				<g
   id="g482">
					<path
   style="fill:#37474f"
   d="m 272.375,305.53 0.984,-0.006 c -0.007,5.955 0.414,12.777 1.104,13.415 1.199,1.1 6.036,2.57 7.186,2.454 1.185,-0.113 2.267,-0.877 4.632,-3.268 1.66,-1.679 1.684,-2.874 1.736,-5.49 0.019,-0.981 -0.4,-6.4 -0.407,-7.783 h 0.932 c 0.225,1.687 0.478,6.83 0.459,7.797 -0.052,2.632 -0.082,4.22 -2.03,6.19 -2.558,2.586 -3.782,3.417 -5.237,3.556 -0.169,0.016 -0.383,0.01 -0.631,-0.015 -1.972,-0.198 -6.109,-1.598 -7.3,-2.691 -1.34,-1.23 -1.432,-11.149 -1.428,-14.159 z"
   id="path472" />
					<path
   style="fill:#37474f"
   d="m 266.718,295.982 -0.957,-0.236 c -1.758,7.463 -4.819,25.599 -5.728,32.345 l -0.136,1.063 c -1.896,14.664 -2.056,28.324 -1.561,43.722 0.554,17.24 1.641,46.823 2.158,60.73 0.321,0.059 0.652,0.115 0.991,0.165 -0.513,-13.817 -1.812,-43.599 -2.165,-60.928 -0.731,-35.865 2.672,-52.835 7.398,-76.861 z"
   id="path474" />
					<path
   style="fill:#37474f"
   d="m 305.731,314.864 c -0.534,0.527 -1.717,1.238 -2.157,1.267 l -0.03,0.001 c -1.551,0.071 -4.116,-2.138 -4.844,-3.801 -0.355,-0.808 -0.471,-1.784 -0.62,-3.02 -0.154,-1.286 -0.563,-4.828 -1.055,-6.556 l 0.991,-0.066 c 0.515,1.806 0.89,5.242 1.041,6.5 0.139,1.152 0.247,2.061 0.541,2.732 0.617,1.407 2.865,3.254 3.898,3.207 l 0.015,-10e-4 c 0.267,-0.018 1.712,-1.045 2.452,-1.941 -0.064,0.494 -0.158,1.173 -0.232,1.678 z"
   id="path476" />
					<path
   style="fill:#37474f"
   d="m 311.53,414.188 c 0.227,-0.26 0.459,-0.519 0.701,-0.775 -6.27,-10.933 -19.737,-34.851 -20.94,-40.658 -1.539,-7.433 -4.19,-32.353 -4.296,-45.759 l -0.985,0.007 c 0.106,13.459 2.771,38.491 4.318,45.961 1.26,6.075 14.97,30.379 21.202,41.224 z"
   id="path478" />
					<path
   style="fill:#37474f"
   d="m 291.581,297.583 c 2.491,3.964 4.743,16.19 1.527,23.818 l -0.904,-0.398 c 3.064,-7.266 0.762,-19.676 -1.593,-23.42 z"
   id="path480" />
				</g>
				<path
   style="fill:#37474f"
   d="m 278.071,354.635 3.99,-27.434 c 0,0 10.329,-1.445 11.753,-11.13 0.25,5.745 -2.043,10.689 -8.459,13.343 l -5.125,25.323 1.205,15.892 z"
   id="path484" />
			</g>
		</g>
		<g
   id="Top_2_">
			<g
   id="g494">
				<path
   style="fill:#aa4400;fill-opacity:1"
   d="m 292.944,236.607 c 5.904,-1.312 9.694,-1.344 13.019,3.338 3.326,4.682 1.599,13.237 -1.73,16.704 -3.328,3.468 -11.289,-20.042 -11.289,-20.042 z"
   id="path489" />
				
				<path
   id="XMLID_99_"
   style="fill:#ffbda7"
   d="m 269.616,249.808 c 0,0 -24.929,-4.961 -26.351,-5.989 -1.21,-0.875 -1.601,-2.308 -2.203,-3.587 -0.691,-1.468 -1.681,-2.787 -2.757,-3.993 -0.709,-0.794 -1.563,-1.478 -2.225,-2.306 -0.613,-0.767 -0.868,-1.735 -1.46,-2.512 -0.641,-0.842 -1.4,-0.219 -1.778,0.532 -0.502,0.996 -0.309,2.396 0.081,3.393 0.186,0.476 0.348,0.961 0.538,1.435 0.173,0.432 0.433,0.864 0.516,1.328 0.04,0.223 0.068,0.518 -0.051,0.717 -0.27,0.448 -1.112,0.147 -1.487,-0.002 -2.465,-0.981 -4.847,-2.57 -6.71,-4.455 -0.817,-0.828 -1.46,-1.756 -2.338,-2.53 -0.773,-0.682 -1.732,-1.382 -2.689,-1.785 -0.497,-0.21 -1.563,-0.583 -2.113,-0.379 -1.08,0.4 0.124,2.115 0.402,2.695 0.346,0.72 0.54,1.268 0.501,2.081 -0.05,1.062 0.149,1.509 0.737,2.391 0.495,0.742 1.255,1.524 1.365,2.424 0.038,0.31 0.002,0.651 0,0.964 -0.005,0.888 0.592,2.006 1.148,2.663 0.714,0.844 0.887,1.405 1.001,2.497 0.221,2.105 2.425,3.657 4.067,4.668 1.889,1.163 3.966,1.99 6.068,2.679 1.133,0.371 2.235,0.831 3.377,1.174 1.021,0.307 2.074,0.505 3.07,0.885 2.37,0.906 20.726,7.899 28.044,9.925" />
			</g>
			<g
   id="Puzzle_Piece_4_">
				<path
   style="fill:#455a64"
   d="m 223.467,230.644 c -0.232,-0.138 -0.482,-0.21 -0.745,-0.211 0.058,-0.873 0.123,-1.784 0.19,-2.733 0.19,-2.7 0.4,-5.76 0.54,-8.95 l -8.126,-4.688 c -1.44,0.83 -2.83,1.6 -4.16,2.33 -5.09,2.8 -9.1,5 -10.37,7.77 -0.98,2.16 -0.41,4.26 0.37,5.41 0.8,1.16 0.96,2.49 0.96,3.4 0,0.181 -0.031,0.369 -0.045,0.553 -0.08,-0.206 -0.181,-0.392 -0.319,-0.536 -0.09,-0.093 -0.19,-0.17 -0.299,-0.231 -1.423,-0.798 -8.017,-4.626 -8.126,-4.688 -1.43,-0.802 -4.493,1.047 -8.971,3.751 -1.28,0.77 -2.68,1.62 -4.2,2.5 l -0.02,0.01 -0.1,2.38 c -0.43,9.84 -0.74,16.94 0.81,18.32 0.055,0.049 0.111,0.09 0.168,0.124 1.028,0.608 8.097,4.674 8.17,4.712 0.27,0.141 0.57,0.13 0.882,0.005 -0.698,2.177 -1.782,3.948 -3,4.65 -0.59,0.34 -1.51,0.62 -2.57,0 -1.04,-0.61 -2.62,-0.57 -3.65,1.54 -1.76,3.6 -1.48,13.76 -1.07,23.09 l 8.126,4.688 c 1.47,-0.84 2.85,-1.6 4.18,-2.33 4.83,-2.66 8.64,-4.75 9.91,-7.51 0.98,-2.15 0.41,-4.26 -0.38,-5.41 -0.79,-1.16 -0.96,-2.49 -0.96,-3.4 0,-0.183 0.032,-0.375 0.046,-0.562 0.082,0.214 0.184,0.406 0.328,0.554 0.076,0.079 0.161,0.145 0.252,0.2 1.375,0.816 8.036,4.634 8.128,4.689 1.384,0.819 4.491,-1.086 9.056,-3.871 1.4,-0.86 2.97,-1.82 4.66,-2.8 -0.11,-2.42 -0.25,-4.65 -0.39,-6.81 -0.46,-7.35 -0.79,-12.66 0.65,-15.61 1.25,-2.55 3.08,-2.64 4.27,-1.95 0.95,0.56 1.77,0.32 2.28,0.02 1.84,-1.06 3.34,-4.99 3.34,-8.76 0,-2.551 -0.687,-4.383 -1.701,-4.973 -0.484,-0.281 -7.107,-4.076 -8.114,-4.673 z"
   id="path496" />
				<g
   id="g504">
					<path
   style="fill:#263238"
   d="m 195.204,254.081 c -0.59,0.34 -1.51,1.13 -2.57,2.96 -0.71,1.25 -1.69,2.49 -2.56,2.83 -0.7,2.18 -1.78,3.95 -3,4.65 -0.59,0.34 -1.51,0.62 -2.57,0 -1.04,-0.61 -2.62,-0.57 -3.65,1.54 l 8.13,4.69 c 1.03,-2.11 2.61,-2.15 3.65,-1.54 1.06,0.62 1.98,0.34 2.57,0 2.1,-1.21 3.81,-5.59 3.81,-9.77 0,-4.17 -1.71,-6.569 -3.81,-5.36 z"
   id="path498" />
					<path
   style="fill:#37474f"
   d="m 200.434,243.342 c 0,3.23 2.2,4.59 4.91,3.03 2.71,-1.57 4.91,-5.47 4.91,-8.71 0,-0.91 -0.16,-2.24 -0.96,-3.4 -0.75,-1.11 -1.31,-3.11 -0.46,-5.19 l -8.12,-4.69 c -0.84,2.08 -0.3,4.08 0.45,5.19 0.8,1.16 0.96,2.49 0.96,3.4 0,0.17 -0.03,0.36 -0.04,0.53 0,0.01 0,0.01 0,0.02 0.49,1.25 -0.02,3.54 -0.69,5.3 -0.8,2.08 -0.96,3.599 -0.96,4.52 z"
   id="path500" />
					<path
   style="fill:#263238"
   d="m 210.494,269.522 c 0,-3.24 -2.2,-4.6 -4.91,-3.03 -2.566,1.477 -4.66,5.056 -4.877,8.175 0.089,0.188 0.189,0.367 0.328,0.515 0.08,0.08 0.16,0.15 0.25,0.2 1.33,0.79 7.52,4.34 8.09,4.66 -0.07,-0.04 -0.14,-0.1 -0.21,-0.17 -0.99,-1.02 -0.42,-3.78 0.37,-5.84 0.789,-2.08 0.959,-3.601 0.959,-4.51 z"
   id="path502" />
				</g>
				<g
   id="g510">
					<path
   style="fill:#fafafa"
   d="m 202.083,233.521 c -0.04,-0.1 -0.08,-0.19 -0.14,-0.28 0.06,0.08 0.1,0.17 0.14,0.26 0,0.011 0,0.011 0,0.02 z"
   id="path506" />
					<path
   style="fill:#e0e0e0"
   d="m 201.943,233.242 c 0.06,0.09 0.1,0.18 0.14,0.28 0,-0.01 0,-0.01 0,-0.02 -0.04,-0.091 -0.08,-0.18 -0.14,-0.26 z"
   id="path508" />
				</g>
				<path
   style="fill:#37474f"
   d="m 187.912,293.841 1.07,-23.09 -8.127,-4.688 c -1.76,3.6 -1.48,13.76 -1.07,23.09 z"
   id="path512" />
				<path
   style="fill:#37474f"
   d="m 180.856,255.033 c 0.055,0.049 0.111,0.09 0.168,0.124 1.028,0.608 8.097,4.674 8.17,4.712 l -0.922,-20.848 -8.126,-4.688 -0.1,2.38 c -0.43,9.84 -0.74,16.94 0.81,18.32 z"
   id="path514" />
				<g
   id="g520">
					<path
   style="fill:#fafafa"
   d="m 188.376,293.002 c -0.384,-8.992 -0.606,-18.633 1.056,-22.031 0.512,-1.048 1.199,-1.601 1.989,-1.601 0.323,0 0.655,0.094 0.959,0.272 0.494,0.289 1.009,0.436 1.53,0.436 0.523,0 1.042,-0.146 1.542,-0.434 2.276,-1.313 4.061,-5.794 4.061,-10.203 0,-3.692 -1.306,-6.174 -3.248,-6.174 -0.433,0 -0.874,0.128 -1.313,0.38 -0.639,0.368 -1.634,1.212 -2.752,3.142 -0.902,1.58 -1.966,2.681 -2.587,2.681 -0.11,0 -0.202,-0.038 -0.298,-0.123 -1.374,-1.224 -1.035,-8.963 -0.643,-17.925 l 0.088,-2.108 c 1.231,-0.714 2.351,-1.388 3.393,-2.017 l 0.596,-0.359 c 3.581,-2.162 6.406,-3.868 7.903,-3.868 0.335,0 0.573,0.085 0.75,0.268 0.649,0.676 0.453,2.857 -0.479,5.304 -0.82,2.133 -0.992,3.732 -0.992,4.698 0,2.538 1.288,4.177 3.281,4.177 0.756,0 1.557,-0.24 2.378,-0.713 2.847,-1.649 5.161,-5.75 5.161,-9.143 0,-0.987 -0.182,-2.428 -1.05,-3.684 -0.705,-1.041 -1.216,-2.958 -0.325,-4.919 1.197,-2.611 5.133,-4.775 10.115,-7.517 1.12,-0.615 2.254,-1.242 3.418,-1.904 -0.136,2.81 -0.319,5.499 -0.498,8.029 -0.528,7.444 -0.878,12.363 0.645,13.728 0.332,0.294 0.71,0.442 1.128,0.442 1.688,10e-4 3.297,-2.48 3.909,-3.546 0.941,-1.634 1.72,-2.254 2.101,-2.479 0.226,-0.13 0.445,-0.197 0.649,-0.197 0.938,0 1.937,1.639 1.937,4.676 0,3.549 -1.415,7.362 -3.09,8.326 -0.284,0.168 -0.575,0.251 -0.869,0.251 -0.3,0 -0.605,-0.09 -0.907,-0.268 -0.494,-0.287 -1.041,-0.438 -1.584,-0.438 -0.79,0 -2.28,0.337 -3.389,2.599 -1.501,3.072 -1.165,8.436 -0.7,15.86 0.135,2.068 0.269,4.199 0.376,6.499 -1.608,0.938 -3.113,1.858 -4.408,2.654 l -0.086,0.052 c -3.605,2.199 -6.454,3.936 -7.92,3.936 -0.404,0 -0.584,-0.137 -0.684,-0.239 -0.658,-0.68 -0.462,-2.864 0.478,-5.313 0.821,-2.161 0.993,-3.742 0.993,-4.689 0,-2.541 -1.286,-4.184 -3.275,-4.184 -0.758,0 -1.561,0.243 -2.386,0.721 -2.85,1.64 -5.169,5.737 -5.169,9.133 0,0.977 0.182,2.41 1.047,3.681 0.716,1.043 1.234,2.957 0.339,4.922 -1.195,2.598 -4.922,4.65 -9.639,7.247 -1.161,0.64 -2.32,1.277 -3.531,1.962 z"
   id="path516" />
					<path
   style="fill:#e0e0e0"
   d="m 222.366,220.52 c -0.129,2.469 -0.292,4.853 -0.451,7.11 -0.605,8.515 -0.823,12.673 0.813,14.139 0.418,0.371 0.922,0.567 1.458,0.567 1.88,0 3.528,-2.379 4.343,-3.796 0.884,-1.536 1.583,-2.098 1.913,-2.292 0.151,-0.087 0.291,-0.133 0.405,-0.133 0.602,0 1.436,1.451 1.436,4.176 0,3.688 -1.496,7.12 -2.847,7.898 -0.202,0.119 -0.408,0.18 -0.612,0.18 -0.213,0 -0.426,-0.065 -0.66,-0.203 -0.567,-0.329 -1.201,-0.503 -1.832,-0.503 -0.906,0 -2.61,0.374 -3.838,2.879 -1.558,3.191 -1.219,8.611 -0.749,16.113 0.125,1.929 0.255,3.987 0.361,6.187 -1.49,0.873 -2.866,1.714 -4.154,2.505 l -0.089,0.055 c -3.397,2.072 -6.332,3.861 -7.657,3.861 -0.239,0 -0.301,-0.064 -0.325,-0.089 -0.431,-0.444 -0.329,-2.399 0.587,-4.789 0.847,-2.231 1.025,-3.877 1.025,-4.865 0,-2.801 -1.517,-4.683 -3.776,-4.683 -0.847,0 -1.734,0.265 -2.633,0.786 -3.04,1.75 -5.421,5.952 -5.421,9.567 0,1.049 0.197,2.587 1.136,3.966 0.641,0.934 1.104,2.654 0.296,4.426 -1.127,2.45 -4.79,4.467 -9.426,7.02 l -0.057,0.031 c -0.92,0.505 -1.831,1.006 -2.77,1.533 -0.289,-6.836 -0.621,-17.578 1.04,-20.977 0.294,-0.602 0.799,-1.32 1.54,-1.32 0.296,0 0.547,0.111 0.707,0.204 0.572,0.335 1.172,0.504 1.783,0.504 0.612,0 1.214,-0.169 1.791,-0.501 2.417,-1.393 4.311,-6.065 4.311,-10.636 0,-3.991 -1.506,-6.673 -3.748,-6.673 -0.521,0 -1.047,0.15 -1.561,0.447 -1.006,0.579 -1.994,1.698 -2.939,3.33 -0.972,1.7 -1.88,2.419 -2.117,2.429 -1.195,-1.064 -0.83,-9.435 -0.476,-17.531 l 0.077,-1.831 c 1.117,-0.652 2.153,-1.277 3.159,-1.883 l 0.601,-0.362 c 3.373,-2.037 6.286,-3.796 7.644,-3.796 0.279,0 0.358,0.081 0.388,0.112 0.426,0.443 0.324,2.397 -0.582,4.778 -0.848,2.206 -1.027,3.871 -1.027,4.879 0,2.797 1.52,4.677 3.781,4.677 0.844,0 1.729,-0.262 2.63,-0.781 3.033,-1.757 5.409,-5.963 5.409,-9.575 0,-1.058 -0.197,-2.605 -1.133,-3.961 -0.635,-0.937 -1.092,-2.661 -0.289,-4.432 1.129,-2.462 4.999,-4.591 9.942,-7.31 0.786,-0.431 1.667,-0.917 2.593,-1.437 m 1.086,-1.769 c -1.44,0.83 -2.83,1.6 -4.16,2.33 -5.09,2.8 -9.1,5 -10.37,7.77 -0.98,2.16 -0.41,4.26 0.37,5.41 0.8,1.16 0.96,2.49 0.96,3.4 0,3.24 -2.2,7.14 -4.91,8.71 -0.762,0.439 -1.485,0.647 -2.129,0.647 -1.645,0 -2.781,-1.355 -2.781,-3.677 0,-0.92 0.16,-2.44 0.96,-4.52 0.78,-2.05 1.35,-4.81 0.37,-5.83 -0.279,-0.288 -0.649,-0.42 -1.109,-0.42 -1.636,0 -4.399,1.668 -8.161,3.939 -1.28,0.77 -2.68,1.62 -4.2,2.5 l -0.02,0.01 -0.1,2.38 c -0.43,9.84 -0.74,16.94 0.81,18.32 0.193,0.173 0.406,0.25 0.631,0.25 0.973,0 2.174,-1.452 3.019,-2.93 1.06,-1.83 1.98,-2.62 2.57,-2.96 0.368,-0.212 0.725,-0.314 1.062,-0.313 1.585,0 2.748,2.235 2.748,5.673 0,4.18 -1.71,8.56 -3.81,9.77 -0.336,0.193 -0.778,0.367 -1.292,0.367 -0.39,0 -0.821,-0.1 -1.278,-0.367 -0.355,-0.208 -0.774,-0.341 -1.212,-0.341 -0.844,0 -1.76,0.492 -2.438,1.881 -1.76,3.6 -1.48,13.76 -1.07,23.09 1.47,-0.84 2.85,-1.6 4.18,-2.33 4.83,-2.66 8.64,-4.75 9.91,-7.51 0.98,-2.15 0.41,-4.26 -0.38,-5.41 -0.79,-1.16 -0.96,-2.49 -0.96,-3.4 0,-3.23 2.21,-7.14 4.92,-8.7 0.765,-0.443 1.489,-0.653 2.134,-0.653 1.642,0 2.776,1.357 2.776,3.683 0,0.91 -0.17,2.43 -0.96,4.51 -0.79,2.06 -1.36,4.82 -0.37,5.84 0.26,0.269 0.609,0.392 1.043,0.392 1.619,0 4.427,-1.72 8.267,-4.062 1.4,-0.86 2.97,-1.82 4.66,-2.8 -0.11,-2.42 -0.25,-4.65 -0.39,-6.81 -0.46,-7.35 -0.79,-12.66 0.65,-15.61 0.841,-1.716 1.945,-2.318 2.94,-2.318 0.483,0 0.941,0.142 1.33,0.368 0.417,0.246 0.809,0.338 1.161,0.338 0.449,0 0.833,-0.149 1.119,-0.318 1.84,-1.06 3.34,-4.99 3.34,-8.76 0,-3.129 -1.033,-5.176 -2.437,-5.176 -0.287,0 -0.591,0.086 -0.903,0.266 -0.51,0.3 -1.33,1.01 -2.28,2.66 -0.956,1.664 -2.326,3.295 -3.476,3.295 -0.281,0 -0.548,-0.097 -0.794,-0.315 -1.34,-1.2 -0.98,-6.28 -0.48,-13.32 0.19,-2.699 0.4,-5.759 0.54,-8.949 z"
   id="path518" />
				</g>
			</g>
			<g
   id="XMLID_15_">
				<path
   id="XMLID_98_"
   style="fill:#263238"
   d="m 266.752,205.323 c -1.166,-1.56 -1.002,-3.894 -0.164,-5.652 0.837,-1.758 2.452,-3.567 6.93,-5.495 5.319,-2.29 19.838,-3.812 25.406,5.909 0.831,1.451 -14.349,27.139 -14.048,32.599 -3.329,-4.04 -14.267,-18.193 -14.267,-18.193 -2.73,-1.398 -4.36,-2.536 -4.766,-5.234 -0.115,-0.77 0.059,-2.702 0.909,-3.934 z" />
				<g
   id="XMLID_16_">
					<path
   id="XMLID_97_"
   style="fill:#f0997a"
   d="m 268.342,212.853 c 0,0 -4.241,5.942 -3.857,6.478 0.384,0.537 2.684,2.062 2.684,2.062 z" />
					<path
   id="XMLID_17_"
   style="fill:#ffbda7"
   d="m 273.87,201.867 c -2.635,1.024 -4.986,2.823 -6.177,8.365 -0.311,1.448 0.689,3.53 0.032,5.439 -2.812,8.175 -0.671,15.31 0.841,16.958 1.021,1.112 6.711,1.979 9.773,1.356 3.831,-0.78 12.254,-3.885 16.563,-9.481 5.069,-6.584 6.8,-15.797 1.966,-19.888 -6.801,-5.76 -20.185,-3.843 -22.998,-2.749 z" />
					<path
   style="fill:#ffbda7"
   d="m 292.113,229.038 0.478,8.304 v 0 c 4.61,2.694 -4.929,6.211 -15.041,1.882 l -0.73,-7.489 z"
   id="path526" />
					<path
   style="fill:#ffbda7"
   d="m 277.153,235.148 c 0.187,1.922 0.373,4.793 -2.602,5.585 -2.799,0.745 -6.299,1.212 -10.71,2.859 0,0 14.87,2.509 23.206,1.133 8.336,-1.376 9.787,-6.74 9.787,-6.74 -3.002,-0.402 -4.257,-0.901 -4.369,-2.837 z"
   id="path528" />
					<path
   style="fill:#f0997a"
   d="m 268.856,232.859 c 1.279,0.833 4.176,1.588 8.202,1.315 l -0.179,-2.078 c 0,0 -1.647,0.574 -3.881,0.864 -2.221,0.288 -4.119,-0.096 -4.142,-0.101 z"
   id="path530" />
				</g>
				<path
   style="fill:#263238"
   d="m 313.704,204.331 c -0.893,-1.465 -2.432,-2.179 -4.092,-2.022 0.03,-2.851 -2.609,-5.281 -5.444,-5.58 -2.593,-0.273 -5.155,0.952 -7.019,2.796 -1.883,-0.482 -8.218,-1.89 -11.966,-1.352 -13.222,1.898 -15.229,5.785 -15.298,6.412 -0.398,3.619 1.797,4.924 3.367,5.754 -0.655,1.008 -1.117,3.055 -0.971,4.23 0.233,1.866 0.825,3.422 2.592,4.159 1.082,0.451 1.443,-0.014 1.9,-0.859 0.65,-1.202 1.49,-3.058 4.132,-2.502 3.029,0.638 3.508,5.3 1.511,8.19 -0.88,1.274 -2.247,2.094 -3.612,2.075 -1.224,-0.017 -2.012,-1.13 -2.012,-1.13 0,0 -0.084,4.037 4.916,6.784 0,0 5.007,3.307 10.469,2.107 2.168,-2.24 4.707,-4.54 7.399,-7.893 0.848,-1.057 1.602,-2.246 2.252,-3.515 2.196,0.771 4.717,0.626 6.654,-0.648 2.622,-1.724 3.746,-5.538 2.186,-8.26 2.002,0.818 4.103,-1.546 2.426,-3.46 1.442,-0.927 1.503,-3.821 0.61,-5.286 z"
   id="path533" />
			</g>
			<g
   id="XMLID_13_"
   style="fill:#d45500">
				<path
   id="XMLID_14_"
   style="fill:#d45500"
   d="m 305.692,246.846 c -1.384,-6.737 -5.038,-8.202 -6.666,-8.492 -2.598,-0.464 -4.209,-0.732 -4.209,-0.732 0.046,0.798 0.577,2.704 -6.879,3.637 -4.797,0.6 -13.065,-0.629 -13.065,-0.629 0,0 -4.254,0.629 -9.417,2.106 -4.837,1.384 -7.39,7.027 -10.548,14.483 -2.495,5.892 -1.561,11.892 2.892,16.275 0.34,3.701 0.315,6.363 -0.266,11.031 -0.554,4.45 -1.487,6.618 -0.103,8.763 0,0 5.702,4.586 19.368,4.08 17.527,-0.649 23.181,-5.762 23.181,-5.762 1.514,-1.058 -0.558,-5.748 -0.318,-8.322 0.446,-8.53 9.024,-21.858 6.03,-36.438 z" />
			</g>
			<g
   id="g545">
				<path
   id="XMLID_12_"
   style="fill:#ffbda7"
   d="m 226.793,264.537 c 0,0 -24.929,-4.961 -26.351,-5.989 -1.21,-0.875 -1.601,-2.308 -2.203,-3.587 -0.691,-1.468 -1.681,-2.787 -2.758,-3.993 -0.709,-0.794 -1.563,-1.478 -2.225,-2.306 -0.613,-0.768 -0.868,-1.735 -1.46,-2.512 -0.641,-0.842 -1.4,-0.219 -1.778,0.531 -0.502,0.996 -0.309,2.396 0.081,3.393 0.186,0.476 0.348,0.961 0.538,1.435 0.173,0.432 0.433,0.864 0.516,1.328 0.04,0.223 0.069,0.518 -0.051,0.717 -0.27,0.448 -1.112,0.147 -1.487,-0.002 -2.465,-0.981 -4.847,-2.57 -6.71,-4.455 -0.817,-0.827 -1.46,-1.756 -2.338,-2.53 -0.773,-0.682 -1.732,-1.382 -2.689,-1.785 -0.497,-0.21 -1.563,-0.583 -2.113,-0.379 -1.079,0.4 0.124,2.115 0.402,2.695 0.346,0.72 0.54,1.268 0.502,2.081 -0.051,1.062 0.149,1.509 0.737,2.391 0.495,0.742 1.255,1.524 1.365,2.424 0.038,0.31 0.002,0.651 0,0.964 -0.005,0.888 0.592,2.006 1.148,2.663 0.714,0.844 0.887,1.405 1.001,2.497 0.221,2.105 2.425,3.657 4.067,4.668 1.889,1.163 3.966,1.99 6.068,2.679 1.133,0.371 2.235,0.831 3.377,1.173 1.021,0.307 2.074,0.505 3.069,0.885 2.37,0.906 20.726,7.899 28.044,9.925 3.607,0.998 4.583,1.894 9.661,-0.757 9.147,-4.775 18.114,-8.041 23.376,-11.266 7.209,-4.417 10.274,-6.893 11.256,-11.596 2.276,-10.904 -2.634,-13.573 -2.634,-13.573 -6.262,0.155 -8.934,1.521 -16.523,6.569 -8.228,5.475 -23.888,15.712 -23.888,15.712 z" />
				<g
   id="g543"
   style="fill:#aa4400">
					<path
   style="fill:#aa4400"
   d="m 270.301,241.509 c -3.063,0.289 -9.074,-2.563 -13.979,2.133 -4.905,4.696 -29.237,20.26 -29.237,20.26 l -12.857,-1.958 c 0,0 -2.699,1.677 -4.238,6.321 -1.539,4.643 0.503,6.513 0.503,6.513 0,0 11.373,4.392 15.773,5.389 4.4,0.998 4.355,1.174 9.659,-1.347 5.303,-2.521 28.535,-13.716 28.535,-13.716 0,0 9.903,-5.293 5.841,-23.595 z"
   id="path539" />
					<path
   style="opacity:0.35;fill:#aa4400"
   d="m 270.301,241.509 c -3.063,0.289 -9.074,-2.563 -13.979,2.133 -4.905,4.696 -29.237,20.26 -29.237,20.26 l -12.857,-1.958 c 0,0 -2.699,1.677 -4.238,6.321 -1.539,4.643 0.503,6.513 0.503,6.513 0,0 11.373,4.392 15.773,5.389 4.4,0.998 4.355,1.174 9.659,-1.347 5.303,-2.521 28.535,-13.716 28.535,-13.716 0,0 9.903,-5.293 5.841,-23.595 z"
   id="path541" />
				</g>
			</g>
		</g>
	</g>
</g>
<g
   id="g4436"
   transform="matrix(0.39771082,0,0,0.39771082,52.448042,62.623871)">
	<g
   id="g4434">
		<g
   id="g4430"
   transform="matrix(0.93846784,0,0,0.93846784,-8.1145431,54.492592)">
			<g
   id="g4428">
				<g
   id="g4422">
					<path
   style="fill:#fafafa"
   d="m 145.121,444.068 c -0.655,0 -1.266,-0.144 -1.72,-0.406 l -1.54,-0.889 c -0.933,-0.539 -1.721,-1.903 -1.721,-2.98 v -46.254 c 0,-1.077 0.788,-2.441 1.721,-2.979 l 38.902,-22.427 c 0.454,-0.262 1.065,-0.406 1.72,-0.406 0.655,0 1.266,0.144 1.72,0.406 l 1.54,0.889 c 0.932,0.539 1.72,1.903 1.72,2.98 l 0.001,46.254 c 0,1.077 -0.788,2.441 -1.72,2.979 l -38.902,22.427 c -0.455,0.262 -1.065,0.406 -1.721,0.406 z"
   id="path4418" />
					<path
   style="fill:#ff9955"
   d="m 182.484,368.068 c 0.588,0 1.152,0.132 1.549,0.361 l 1.54,0.889 c 0.84,0.485 1.549,1.714 1.549,2.684 v 46.255 c 0,0.97 -0.709,2.199 -1.549,2.683 l -38.903,22.427 c -0.397,0.229 -0.962,0.361 -1.549,0.361 -0.588,0 -1.152,-0.131 -1.549,-0.361 l -1.54,-0.889 c -0.84,-0.485 -1.55,-1.714 -1.55,-2.684 v -46.255 c 0,-0.97 0.71,-2.198 1.549,-2.683 l 38.903,-22.427 c 0.397,-0.23 0.962,-0.361 1.55,-0.361 m 0,-0.684 c -0.684,0 -1.369,0.151 -1.891,0.452 l -38.902,22.427 c -1.045,0.603 -1.891,2.069 -1.891,3.275 v 46.255 c 0,1.206 0.847,2.673 1.891,3.276 l 1.54,0.889 c 0.522,0.301 1.207,0.452 1.891,0.452 0.684,0 1.369,-0.151 1.891,-0.452 l 38.902,-22.427 c 1.044,-0.603 1.891,-2.069 1.891,-3.275 v -46.255 c 0,-1.206 -0.846,-2.672 -1.891,-3.276 l -1.54,-0.889 c -0.522,-0.301 -1.207,-0.452 -1.891,-0.452 z"
   id="path4420" />
				</g>
				<path
   id="path4424"
   style="fill:#ff6600"
   d="m 139.799,439.793 c 0,1.206 0.847,2.672 1.891,3.275 l 1.54,0.889 c 0.944,0.545 2.413,0.592 3.459,0.152 -0.89,0.336 -1.568,-0.166 -1.568,-1.244 V 396.61 c 0,-0.603 0.212,-1.271 0.554,-1.864 l -5.322,-3.073 c -0.342,0.593 -0.554,1.261 -0.554,1.864 z" />
				<path
   id="path4426"
   style="fill:#d45500"
   d="m 187.744,371.463 c -0.221,-0.803 -0.953,-1.059 -1.826,-0.556 l -38.906,22.43 c -0.52,0.3 -0.997,0.812 -1.332,1.412 l -5.32,-3.07 c 0.344,-0.6 0.812,-1.112 1.332,-1.412 l 38.898,-22.43 c 1.05,-0.6 2.743,-0.6 3.785,0 l 1.544,0.891 c 0.89,0.512 1.639,1.659 1.825,2.735 z" />
				
			</g>
		</g>
		
	</g>
</g></svg>
