<?xml version="1.0" encoding="UTF-8" standalone="no"?>
<!-- Created with Inkscape (http://www.inkscape.org/) -->

<svg
   width="5.6901045mm"
   height="4.2845154mm"
   viewBox="0 0 5.6901045 4.2845154"
   version="1.1"
   id="svg5"
   xml:space="preserve"
   xmlns:inkscape="http://www.inkscape.org/namespaces/inkscape"
   xmlns:sodipodi="http://sodipodi.sourceforge.net/DTD/sodipodi-0.dtd"
   xmlns="http://www.w3.org/2000/svg"
   xmlns:svg="http://www.w3.org/2000/svg"><sodipodi:namedview
     id="namedview7"
     pagecolor="#ffffff"
     bordercolor="#000000"
     borderopacity="0.25"
     inkscape:showpageshadow="2"
     inkscape:pageopacity="0.0"
     inkscape:pagecheckerboard="0"
     inkscape:deskcolor="#d1d1d1"
     inkscape:document-units="mm"
     showgrid="false"
     inkscape:zoom="11.313709"
     inkscape:cx="81.582445"
     inkscape:cy="391.29521"
     inkscape:window-width="1920"
     inkscape:window-height="1009"
     inkscape:window-x="-8"
     inkscape:window-y="-8"
     inkscape:window-maximized="1"
     inkscape:current-layer="layer1" /><defs
     id="defs2" /><g
     inkscape:label="Lager 1"
     inkscape:groupmode="layer"
     id="layer1"
     transform="translate(-8.2839844,-138.45898)"><g
       id="g58253"
       inkscape:export-filename="opc_da.svg"
       inkscape:export-xdpi="117.90063"
       inkscape:export-ydpi="117.90063"><rect
         style="fill:#909190;fill-opacity:1;stroke:#000000;stroke-width:0.199007;stroke-linecap:round;stroke-linejoin:round;stroke-dasharray:none;stroke-opacity:1"
         id="rect53458"
         width="1.3569821"
         height="1.8324053"
         x="9.8717699"
         y="138.56262" /><rect
         style="fill:#e6e6e6;fill-opacity:1;stroke:#000000;stroke-width:0.2;stroke-linecap:round;stroke-linejoin:round;stroke-dasharray:none;stroke-opacity:1"
         id="rect53460"
         width="1.3559896"
         height="1.8520833"
         x="8.3839846"
         y="138.55899" /><rect
         style="fill:#2da5e9;fill-opacity:1;stroke:#000000;stroke-width:0.203687;stroke-linecap:round;stroke-linejoin:round;stroke-dasharray:none;stroke-opacity:1"
         id="rect53456"
         width="5.4822841"
         height="2.3114181"
         x="8.3899622"
         y="140.33025" /><rect
         style="fill:#f00e1e;fill-opacity:1;stroke:none;stroke-width:0.2;stroke-linecap:round;stroke-linejoin:round;stroke-dasharray:none;stroke-opacity:1"
         id="rect54894"
         width="0.59531248"
         height="0.61184895"
         x="8.7504215"
         y="138.728"
         ry="0.26458332" /><rect
         style="fill:#f00e1e;fill-opacity:1;stroke:none;stroke-width:0.2;stroke-linecap:round;stroke-linejoin:round;stroke-dasharray:none;stroke-opacity:1"
         id="rect56483"
         width="0.59531248"
         height="0.61184895"
         x="8.7504215"
         y="139.54651"
         ry="0.26458332" /><rect
         style="fill:#2ad92a;fill-opacity:1;stroke:none;stroke-width:0.2;stroke-linecap:round;stroke-linejoin:round;stroke-dasharray:none;stroke-opacity:1"
         id="rect56485"
         width="0.59531248"
         height="0.61184895"
         x="10.340675"
         y="138.728"
         ry="0.26458332" /><rect
         style="fill:#2ad92a;fill-opacity:1;stroke:none;stroke-width:0.2;stroke-linecap:round;stroke-linejoin:round;stroke-dasharray:none;stroke-opacity:1"
         id="rect56487"
         width="0.59531248"
         height="0.61184895"
         x="10.340675"
         y="139.54651"
         ry="0.26458332" /><g
         aria-label="OPC"
         id="text57923"
         style="font-size:2.2486px;-inkscape-font-specification:sans-serif;stroke-width:0.141644;stroke-linecap:round;stroke-linejoin:round"><path
           d="m 10.177743,140.84786 q 0.09991,0.10979 0.152615,0.26899 0.0538,0.15921 0.0538,0.36123 0,0.20202 -0.0549,0.36232 -0.0538,0.1592 -0.151517,0.26571 -0.101011,0.11089 -0.239353,0.16688 -0.1372436,0.056 -0.3140135,0.056 -0.172378,0 -0.3140134,-0.0571 -0.1405375,-0.0571 -0.239353,-0.16579 -0.098815,-0.1087 -0.1526149,-0.26681 -0.052702,-0.1581 -0.052702,-0.36122 0,-0.19983 0.052702,-0.35793 0.052702,-0.15921 0.1537129,-0.27229 0.09662,-0.1076 0.2393529,-0.1647 0.1438314,-0.0571 0.3129155,-0.0571 0.1756719,0 0.3151115,0.0582 0.140537,0.0571 0.238255,0.1636 z m -0.01976,0.63022 q 0,-0.31841 -0.142734,-0.49079 -0.1427329,-0.17347 -0.3897715,-0.17347 -0.2492345,0 -0.3919679,0.17347 -0.1416354,0.17238 -0.1416354,0.49079 0,0.3217 0.1449293,0.49298 0.1449293,0.17018 0.388674,0.17018 0.2437447,0 0.3875765,-0.17018 0.144929,-0.17128 0.144929,-0.49298 z"
           id="path58235" /><path
           d="m 11.798316,141.15418 q 0,0.1087 -0.03843,0.20203 -0.03733,0.0922 -0.105403,0.1603 -0.08454,0.0845 -0.199827,0.12736 -0.115285,0.0417 -0.290957,0.0417 h -0.217394 v 0.60936 h -0.217394 v -1.63484 h 0.443572 q 0.147125,0 0.249234,0.0252 0.10211,0.0241 0.181162,0.0769 0.09333,0.0626 0.143831,0.1559 0.0516,0.0933 0.0516,0.23606 z m -0.226178,0.005 q 0,-0.0845 -0.02964,-0.14712 -0.02965,-0.0626 -0.09003,-0.10211 -0.0527,-0.034 -0.120774,-0.0483 -0.06697,-0.0154 -0.170183,-0.0154 h -0.215198 v 0.65328 h 0.183358 q 0.131754,0 0.2141,-0.0231 0.08235,-0.0241 0.13395,-0.0758 0.0516,-0.0527 0.07246,-0.11089 0.02196,-0.0582 0.02196,-0.13066 z"
           id="path58237" /><path
           d="m 13.347522,142.17637 q -0.06039,0.0264 -0.109795,0.0494 -0.04831,0.0231 -0.127362,0.0483 -0.06697,0.0209 -0.146027,0.0351 -0.07795,0.0154 -0.172378,0.0154 -0.177868,0 -0.323895,-0.0494 -0.144929,-0.0505 -0.252528,-0.15701 -0.105403,-0.1043 -0.164693,-0.2646 -0.05929,-0.1614 -0.05929,-0.3744 0,-0.20203 0.05709,-0.36123 0.05709,-0.1592 0.164693,-0.269 0.104305,-0.1065 0.25143,-0.16249 0.148223,-0.056 0.328287,-0.056 0.131754,0 0.26241,0.0318 0.131754,0.0318 0.292054,0.11199 v 0.25802 h -0.01647 q -0.135048,-0.11309 -0.2679,-0.16469 -0.132851,-0.0516 -0.284368,-0.0516 -0.124069,0 -0.223982,0.0406 -0.09882,0.0395 -0.17677,0.12407 -0.07576,0.0823 -0.118578,0.20861 -0.04172,0.12516 -0.04172,0.28986 0,0.17237 0.04611,0.29644 0.04721,0.12407 0.120775,0.20203 0.07686,0.0812 0.178966,0.12077 0.103207,0.0384 0.217394,0.0384 0.157006,0 0.29425,-0.0538 0.137244,-0.0538 0.25692,-0.1614 h 0.01537 z"
           id="path58239" /></g></g></g></svg>
